<?xml version="1.0" encoding="utf-8"?>
<!-- Generator: Adobe Illustrator 19.0.1, SVG Export Plug-In . SVG Version: 6.00 Build 0)  -->
<svg version="1.1" id="Capa_1" xmlns="http://www.w3.org/2000/svg" xmlns:xlink="http://www.w3.org/1999/xlink" x="0px" y="0px"
	 viewBox="0 0 359 354" style="enable-background:new 0 0 359 354;" xml:space="preserve">
<style type="text/css">
	.st0{fill:#2C2624;}
	.st1{fill:url(#SVGID_1_);}
	.st2{fill:#FFFFFF;}
	.st3{fill:url(#SVGID_2_);}
	.st4{fill:url(#SVGID_3_);}
	.st5{fill:url(#SVGID_4_);}
</style>
<g>
	<g>
		<path class="st0" d="M130.6,40.6c-16.3,0-29.5,19.6-29.5,43.8c0,21.2,10.1,38.9,23.6,43c0.3,5.7,0.4,12.1,0.4,19.6
			c0,48.8-7.5,119.7,5.5,119.7c13,0,6.6-70.9,6.6-119.7c0-7.6,0.2-14.2,0.4-19.9c12.9-4.6,22.5-21.9,22.5-42.6
			C160,60.2,146.8,40.6,130.6,40.6z"/>
		<path class="st0" d="M195.5,128.7V7.3c-25.4,16.5-27.4,87.4-23.3,107.8c1.8,8.9,6.5,14.2,11.2,17.3c-0.9,49-6.4,118,5.6,118
			C202,250.5,195.5,177.5,195.5,128.7L195.5,128.7z"/>
		<path class="st0" d="M241.7,42.6h-1.9c0,0,3.3,55.3-1.1,55.3c-4.4,0-4.9-55.3-4.9-55.3h-1.6c0,0,2.3,56-2,56c-4.4,0-2-56-2-56
			h-1.6c0,0-0.5,55.3-4.9,55.3c-4.4,0-1.1-55.3-1.1-55.3h-1.9c0,0-11.4,67.8-5.3,73.7c6.1,5.9,10.5,10.9,10.5,17.1l0.6,15.5
			c0,48.8-7.5,119.7,5.5,119.7c13,0,6.6-70.9,6.6-119.7l0.3-15.4c0-6.2,4.1-11.4,10.2-17.3C253.1,110.4,241.7,42.6,241.7,42.6z"/>
	</g>
	<g>
		<g>
			<linearGradient id="SVGID_1_" gradientUnits="userSpaceOnUse" x1="83.2528" y1="343.4572" x2="277.813" y2="148.8969">
				<stop  offset="0" style="stop-color:#7C1E19"/>
				<stop  offset="0.205" style="stop-color:#AB3532"/>
				<stop  offset="0.4022" style="stop-color:#D95153"/>
				<stop  offset="0.5" style="stop-color:#EB5F62"/>
				<stop  offset="0.5978" style="stop-color:#D95153"/>
				<stop  offset="0.795" style="stop-color:#AB3532"/>
				<stop  offset="1" style="stop-color:#7C1E19"/>
			</linearGradient>
			<path class="st1" d="M348.9,246.2c0-30-20.8-55-48.7-61.7c-27.2-25.1-70.6-41.3-119.5-41.3c-48.8,0-92.1,16.2-119.4,41.2
				c-28.1,6.5-49.1,31.7-49.1,61.8c0,30.1,21,55.3,49.1,61.8c27.2,25,70.5,41.2,119.4,41.2c48.9,0,92.2-16.2,119.5-41.3
				C328.1,301.2,348.9,276.1,348.9,246.2z"/>
			<path class="st2" d="M180.7,339c-43.8,0-85.4-14.3-111.5-38.2c-1-0.9-2.2-1.6-3.6-1.9c-24.7-5.7-42-27.4-42-52.8
				c0-25.4,17.3-47.1,42-52.8c1.3-0.3,2.6-1,3.6-1.9c26.1-23.9,67.7-38.2,111.5-38.2c43.8,0,85.5,14.3,111.6,38.3
				c1,0.9,2.2,1.6,3.5,1.9c24.5,5.8,41.6,27.5,41.6,52.7c0,25.2-17.1,46.9-41.6,52.7c-1.3,0.3-2.5,1-3.5,1.9
				C266.2,324.7,224.5,339,180.7,339z"/>
		</g>
		<g>
			<g>
				<path class="st0" d="M71.2,213.7h12.7c0,1.1,0.2,2,0.7,2.7l8.2,10.2l8.8-10.6c0.4-0.5,0.7-1,0.8-1.3c0.1-0.3,0.1-0.7,0.1-1h9.7
					c-1.6,3-2.4,6.2-2.4,9.6v13c0,4.9,0.4,8.2,1.1,9.9h-10.8c0.7-1.7,1.1-5,1.1-9.9v-9.6l-8.4,11.2l-8.5-11.2v9.6
					c0,4.2,0.4,7.5,1.1,9.9H74.5c0.7-2.2,1.1-5.5,1.1-9.9V219L71.2,213.7z"/>
				<path class="st0" d="M134.9,233.3c0,0.8-0.1,1.8-0.3,3h-11.9c0.3,1.4,1,2.6,2.1,3.6c1.1,1,2.5,1.4,4.2,1.4c1.1,0,2.1-0.1,3-0.4
					c0.9-0.3,1.9-0.8,2.9-1.4l-2.7,6.6c-1.5,0.3-3,0.5-4.6,0.5c-4,0-7.2-1-9.6-3c-2.4-2-3.6-4.9-3.6-8.7c0-3.6,1-6.4,3.1-8.6
					c2.1-2.2,4.8-3.3,8-3.3c2.8,0,5,0.9,6.8,2.7C134,227.6,134.9,230.1,134.9,233.3z M125.3,227.5c-1,0-1.8,0.4-2.2,1.1
					c-0.5,0.7-0.8,1.8-0.9,3.4h5.8C128.1,229,127.2,227.5,125.3,227.5z"/>
				<path class="st0" d="M136.8,223.6h8.8v4.2l4.4-4.4c0.9-0.1,1.6-0.2,2.1-0.2c2.1,0,3.7,0.6,4.9,1.9c1.2,1.2,1.8,3.1,1.8,5.4v10.2
					c0,1.8,0.4,3.6,1.1,5.6h-10c0.7-2.2,1.1-4.1,1.1-5.6v-6.7c0-2.1-0.2-3.4-0.7-3.9c-0.5-0.5-1.2-0.8-2.1-0.8
					c-0.8,0-1.6,0.2-2.4,0.7V240c0,1.7,0.4,3.8,1.1,6.2h-10c0.7-2.1,1.1-3.8,1.1-5.3v-9.3V231C137.9,228.2,137.6,225.7,136.8,223.6z
					"/>
				<path class="st0" d="M161.8,223.6h10c-0.7,1.9-1.1,4.1-1.1,6.5v8.2c0,1.9,0.8,2.8,2.5,2.9c0.9,0,1.8-0.3,2.8-1v-10.5
					c0-1.9-0.4-4-1.1-6.2h10c-0.7,1.9-1.1,3.8-1.1,5.6v10.5c0,2.2,0.4,4.4,1.1,6.5H176v-2.7l-4.2,3.1c-0.3,0-0.7,0-1.2,0
					c-2.2,0-4.1-0.6-5.5-1.9c-1.4-1.3-2.2-3.2-2.2-5.7v-10.8C162.9,226.8,162.5,225.2,161.8,223.6z"/>
				<path class="st0" d="M187.2,239.8c1.4,0.8,2.4,1.3,3.2,1.5c0.8,0.2,1.5,0.3,2.3,0.3c0.7,0,1.3-0.1,1.8-0.4
					c0.5-0.3,0.8-0.7,0.8-1.3c0-0.7-0.3-1.3-1-2c-0.7-0.6-1.4-1.2-2.3-1.8c-1.5-1.1-2.6-2-3.2-2.8c-0.6-0.8-0.9-1.9-0.9-3.2
					c0-2.1,0.9-3.8,2.6-5.1c1.8-1.4,4-2,6.8-2c1.8,0,3.6,0.3,5.5,0.8v5.4c-1-0.5-1.9-0.8-2.5-1c-0.6-0.2-1.2-0.3-1.9-0.3
					c-0.8,0-1.4,0.1-1.8,0.4c-0.4,0.3-0.6,0.6-0.6,1.1c0,0.6,0.5,1.3,1.5,2c1,0.7,1.8,1.3,2.4,1.8c2.4,1.8,3.6,3.9,3.6,6.2
					c0,1.9-0.8,3.6-2.4,5c-1.6,1.4-3.9,2-7,2c-2.7,0-4.9-0.3-6.9-1V239.8z"/>
				<path class="st0" d="M207.6,246.2c0.7-2.4,1.1-4.3,1.1-5.8v-20.5c0-2-0.4-4.1-1.1-6.1h20.9l-3.6,6.8c-2.9-0.7-5.4-1.1-7.6-1.1
					v7.7h9.9l-3.4,6.8c-2.8-0.7-4.9-1.1-6.5-1.1v7.2c0,1.8,0.4,3.9,1.1,6.2H207.6z"/>
				<path class="st0" d="M231.9,229.6l1.5-5.5c1.7-0.4,3-0.7,3.9-0.8c0.9-0.1,1.7-0.2,2.5-0.2c2.7,0,4.9,0.7,6.5,2
					c1.6,1.4,2.4,3.6,2.4,6.8v9v0.3c0,1.4,0.4,3.1,1.1,5h-8.3v-2.1l-3.7,2.5c-0.5,0.1-1,0.1-1.4,0.1c-1.7,0-3.3-0.6-4.7-1.7
					c-1.4-1.2-2-2.7-2-4.7c0-3.4,2.9-6,8.8-7.7l2.8-0.9c0-0.9-0.4-1.7-1.1-2.4c-0.7-0.7-1.7-1-3.1-1c-0.8,0-1.6,0.1-2.3,0.3
					C234.2,228.6,233.2,229,231.9,229.6z M236.3,220.9c1.4-2.1,2.4-4.6,3.1-7.4h9c-2.3,2.1-4.5,4.6-6.6,7.4H236.3z M237.3,236.8
					c-0.6,0.9-0.9,1.7-0.9,2.6c0,0.6,0.2,1.2,0.6,1.7c0.4,0.5,1,0.8,1.8,0.8c0.3,0,0.6,0,0.9-0.1c0.3-0.1,0.8-0.2,1.5-0.5v-4.5
					H237.3z"/>
				<path class="st0" d="M270.4,239.6l-2.9,6.5c-1.3,0.4-2.7,0.6-4.1,0.6c-3.5,0-6.4-1.1-8.7-3.2s-3.4-4.9-3.4-8.4
					c0-3.4,1.2-6.3,3.6-8.6c2.4-2.3,5.5-3.4,9.3-3.4c1.7,0,3.5,0.3,5.3,0.8l-0.4,5.8c-1.1-0.6-1.9-0.9-2.5-1.1
					c-0.6-0.2-1.2-0.3-1.8-0.3c-1.6,0-3,0.5-4,1.6c-1.1,1.1-1.6,2.6-1.6,4.6c0,1.8,0.5,3.4,1.4,4.7c1,1.3,2.4,2,4.3,2
					c1.3,0,2.4-0.2,3.3-0.7C269.2,240.2,269.9,239.8,270.4,239.6z"/>
				<path class="st0" d="M272.1,246.2c0.7-2,1.1-3.7,1.1-5.3v-11.1c0-2-0.4-4-1.1-6.2h10c-0.7,1.9-1.1,3.9-1.1,5.9v12.1
					c0,1.8,0.4,3.4,1.1,4.6H272.1z M272.5,216.9c0-1.2,0.4-2.2,1.2-3.1c0.8-0.9,2-1.4,3.4-1.4c1.3,0,2.4,0.4,3.3,1.3
					c0.9,0.9,1.4,2,1.4,3.2c0,1.2-0.4,2.3-1.2,3.2c-0.8,0.9-1.9,1.3-3.2,1.3c-1.6,0-2.7-0.4-3.6-1.3
					C272.9,219.2,272.5,218.1,272.5,216.9z"/>
				<path class="st0" d="M284.9,214.7l10-1c-0.7,1.7-1.1,4-1.1,6.8V240c0,1.9,0.4,4,1.1,6.2h-10c0.7-1.8,1.1-4.4,1.1-7.7v-16.6v-1
					C286,218.2,285.6,216.2,284.9,214.7z"/>
			</g>
			<g>
				<path class="st0" d="M80.2,266.6v-6.3c0-0.1,0-0.3,0-0.4c0-0.1,0-0.8,0.1-1.8c-0.3,1.3-0.6,2.2-0.7,2.8l-1.7,5.8h-1.4l-1.7-5.8
					L74,258c0.1,1.1,0.1,1.9,0.1,2.3v6.3h-1.8v-10.4H75l1.7,5.8l0.1,0.6l0.3,1.4l0.4-1.7l1.7-6.1h2.6v10.4H80.2z"/>
				<path class="st0" d="M90.4,266.6l-0.8-2.7H86l-0.8,2.7h-2l3.4-10.4h2.3l3.4,10.4H90.4z M87.8,257.8l0,0.2c0,0.2-0.1,0.4-0.2,0.6
					s-0.4,1.5-1.2,3.7h2.7l-0.9-3l-0.3-1L87.8,257.8z"/>
				<path class="st0" d="M99.4,266.6l-4.1-8c0.1,0.8,0.1,1.4,0.1,1.9v6.1h-1.8v-10.4h2.3l4.2,8.1c-0.1-0.7-0.1-1.4-0.1-2v-6.1h1.8
					v10.4H99.4z"/>
				<path class="st0" d="M110.2,266.6l-0.8-2.7h-3.6l-0.8,2.7h-2l3.4-10.4h2.3l3.4,10.4H110.2z M107.6,257.8l0,0.2
					c0,0.2-0.1,0.4-0.2,0.6s-0.4,1.5-1.2,3.7h2.7l-0.9-3l-0.3-1L107.6,257.8z"/>
				<path class="st0" d="M117.9,265c0.5,0,1-0.1,1.5-0.2c0.5-0.2,0.9-0.4,1.1-0.6v-1.4h-2.3v-1.6h4.1v3.8c-0.5,0.6-1.2,1-2,1.3
					c-0.8,0.3-1.6,0.5-2.5,0.5c-1.5,0-2.7-0.5-3.5-1.4c-0.8-0.9-1.2-2.3-1.2-4c0-1.7,0.4-3,1.2-3.9c0.8-0.9,2-1.4,3.6-1.4
					c2.2,0,3.6,0.9,4.2,2.7l-1.8,0.6c-0.2-0.5-0.5-0.9-0.9-1.2c-0.4-0.3-0.9-0.4-1.5-0.4c-0.9,0-1.6,0.3-2.1,0.9
					c-0.5,0.6-0.7,1.5-0.7,2.7c0,1.2,0.2,2.1,0.7,2.7C116.3,264.7,117,265,117.9,265z"/>
				<path class="st0" d="M124.1,266.6v-10.4h7.4v1.7h-5.4v2.6h5v1.7h-5v2.7h5.7v1.7H124.1z"/>
				<path class="st0" d="M139.8,266.6l-2.2-4h-2.3v4h-2v-10.4h4.7c1.1,0,2,0.3,2.6,0.8s0.9,1.3,0.9,2.3c0,0.7-0.2,1.4-0.6,1.9
					s-0.9,0.9-1.5,1l2.6,4.4H139.8z M139.5,259.4c0-1-0.6-1.5-1.7-1.5h-2.5v3.1h2.6c0.6,0,1-0.1,1.3-0.4
					C139.4,260.3,139.5,259.9,139.5,259.4z"/>
				<path class="st0" d="M155.4,261.3c0,1.1-0.2,2-0.6,2.8s-0.9,1.4-1.6,1.8s-1.5,0.6-2.4,0.6H147v-10.4h3.4c1.6,0,2.8,0.4,3.7,1.3
					C155,258.4,155.4,259.7,155.4,261.3z M153.4,261.3c0-1.1-0.3-2-0.8-2.6s-1.3-0.9-2.3-0.9H149v7h1.7c0.8,0,1.5-0.3,2-1
					S153.4,262.4,153.4,261.3z"/>
				<path class="st0" d="M156.9,266.6v-10.4h7.4v1.7h-5.4v2.6h5v1.7h-5v2.7h5.7v1.7H156.9z"/>
				<path class="st0" d="M177.6,259.5c0,0.7-0.1,1.3-0.4,1.8c-0.3,0.5-0.7,0.9-1.2,1.2c-0.5,0.3-1.1,0.4-1.8,0.4h-2.3v3.7h-2v-10.4
					h4.2c1.1,0,2,0.3,2.6,0.9S177.6,258.4,177.6,259.5z M175.6,259.5c0-1.1-0.6-1.6-1.8-1.6h-2v3.4h2.1c0.5,0,1-0.1,1.3-0.4
					C175.5,260.5,175.6,260.1,175.6,259.5z"/>
				<path class="st0" d="M179,266.6v-10.4h7.4v1.7H181v2.6h5v1.7h-5v2.7h5.7v1.7H179z"/>
				<path class="st0" d="M196.6,261.3c0,1.1-0.2,2-0.6,2.8s-0.9,1.4-1.6,1.8s-1.5,0.6-2.4,0.6h-3.8v-10.4h3.4c1.6,0,2.8,0.4,3.7,1.3
					C196.1,258.4,196.6,259.7,196.6,261.3z M194.6,261.3c0-1.1-0.3-2-0.8-2.6s-1.3-0.9-2.3-0.9h-1.4v7h1.7c0.8,0,1.5-0.3,2-1
					S194.6,262.4,194.6,261.3z"/>
				<path class="st0" d="M198.1,266.6v-10.4h2v10.4H198.1z"/>
				<path class="st0" d="M210.3,261.3c0,1.1-0.2,2-0.6,2.8s-0.9,1.4-1.6,1.8s-1.5,0.6-2.4,0.6h-3.8v-10.4h3.4c1.6,0,2.8,0.4,3.7,1.3
					C209.8,258.4,210.3,259.7,210.3,261.3z M208.3,261.3c0-1.1-0.3-2-0.8-2.6s-1.3-0.9-2.3-0.9h-1.4v7h1.7c0.8,0,1.5-0.3,2-1
					S208.3,262.4,208.3,261.3z"/>
				<path class="st0" d="M221,261.4c0,1.1-0.2,2-0.6,2.9c-0.4,0.8-0.9,1.5-1.7,1.9c-0.7,0.4-1.6,0.7-2.5,0.7c-1.5,0-2.6-0.5-3.5-1.4
					c-0.8-1-1.3-2.3-1.3-4c0-1.7,0.4-3,1.3-3.9c0.8-0.9,2-1.4,3.5-1.4c1.5,0,2.7,0.5,3.5,1.4C220.5,258.4,221,259.7,221,261.4z
					 M218.9,261.4c0-1.1-0.2-2-0.7-2.6c-0.5-0.6-1.2-1-2-1c-0.9,0-1.6,0.3-2,0.9c-0.5,0.6-0.7,1.5-0.7,2.6c0,1.1,0.2,2,0.7,2.7
					c0.5,0.7,1.2,1,2,1c0.9,0,1.6-0.3,2-1C218.7,263.4,218.9,262.5,218.9,261.4z"/>
				<path class="st0" d="M230.1,263.6c0,1-0.3,1.8-1,2.3s-1.7,0.8-3,0.8c-1.2,0-2.2-0.2-2.8-0.7s-1.1-1.2-1.3-2.1l1.9-0.3
					c0.1,0.6,0.4,1,0.8,1.2c0.4,0.2,0.9,0.4,1.6,0.4c1.4,0,2.1-0.5,2.1-1.4c0-0.3-0.1-0.5-0.2-0.7c-0.2-0.2-0.4-0.4-0.7-0.5
					s-0.8-0.3-1.7-0.5c-0.7-0.2-1.2-0.3-1.5-0.4s-0.5-0.2-0.8-0.4c-0.2-0.2-0.4-0.3-0.6-0.5c-0.2-0.2-0.3-0.5-0.4-0.7
					s-0.1-0.6-0.1-1c0-0.9,0.3-1.7,1-2.2c0.6-0.5,1.6-0.7,2.8-0.7c1.2,0,2,0.2,2.6,0.6c0.6,0.4,1,1.1,1.1,2l-1.9,0.3
					c-0.1-0.4-0.3-0.8-0.6-1c-0.3-0.2-0.7-0.3-1.3-0.3c-1.2,0-1.8,0.4-1.8,1.2c0,0.3,0.1,0.5,0.2,0.7c0.1,0.2,0.3,0.3,0.6,0.4
					s0.8,0.3,1.5,0.5c0.9,0.2,1.6,0.4,1.9,0.6c0.4,0.2,0.7,0.4,0.9,0.6c0.2,0.2,0.4,0.5,0.5,0.9S230.1,263.2,230.1,263.6z"/>
				<path class="st0" d="M239.8,262.3v4.3h-2v-4.3l-3.4-6.1h2.1l2.3,4.4l2.3-4.4h2.1L239.8,262.3z"/>
				<path class="st0" d="M255.7,266.6v-6.3c0-0.1,0-0.3,0-0.4c0-0.1,0-0.8,0.1-1.8c-0.3,1.3-0.6,2.2-0.7,2.8l-1.7,5.8H252l-1.7-5.8
					l-0.7-2.8c0.1,1.1,0.1,1.9,0.1,2.3v6.3h-1.8v-10.4h2.6l1.7,5.8l0.1,0.6l0.3,1.4l0.4-1.7l1.7-6.1h2.6v10.4H255.7z"/>
				<path class="st0" d="M259.3,266.6v-10.4h7.4v1.7h-5.4v2.6h5v1.7h-5v2.7h5.7v1.7H259.3z"/>
				<path class="st0" d="M274.2,266.6l-4.1-8c0.1,0.8,0.1,1.4,0.1,1.9v6.1h-1.8v-10.4h2.3l4.2,8.1c-0.1-0.7-0.1-1.4-0.1-2v-6.1h1.8
					v10.4H274.2z"/>
				<path class="st0" d="M282.3,266.8c-1.3,0-2.3-0.3-3-1c-0.7-0.7-1-1.7-1-3v-6.5h2v6.3c0,0.8,0.2,1.4,0.5,1.9
					c0.4,0.4,0.9,0.6,1.6,0.6c0.7,0,1.2-0.2,1.6-0.7s0.6-1.1,0.6-1.9v-6.3h2v6.4c0,1.3-0.4,2.3-1.1,3.1S283.6,266.8,282.3,266.8z"/>
				<path class="st0" d="M296,263.6c0,1-0.3,1.8-1,2.3s-1.7,0.8-3,0.8c-1.2,0-2.2-0.2-2.8-0.7s-1.1-1.2-1.3-2.1l1.9-0.3
					c0.1,0.6,0.4,1,0.8,1.2c0.4,0.2,0.9,0.4,1.6,0.4c1.4,0,2.1-0.5,2.1-1.4c0-0.3-0.1-0.5-0.2-0.7c-0.2-0.2-0.4-0.4-0.7-0.5
					s-0.8-0.3-1.7-0.5c-0.7-0.2-1.2-0.3-1.5-0.4s-0.5-0.2-0.8-0.4c-0.2-0.2-0.4-0.3-0.6-0.5c-0.2-0.2-0.3-0.5-0.4-0.7
					s-0.1-0.6-0.1-1c0-0.9,0.3-1.7,1-2.2c0.6-0.5,1.6-0.7,2.8-0.7c1.2,0,2,0.2,2.6,0.6c0.6,0.4,1,1.1,1.1,2l-1.9,0.3
					c-0.1-0.4-0.3-0.8-0.6-1c-0.3-0.2-0.7-0.3-1.3-0.3c-1.2,0-1.8,0.4-1.8,1.2c0,0.3,0.1,0.5,0.2,0.7c0.1,0.2,0.3,0.3,0.6,0.4
					s0.8,0.3,1.5,0.5c0.9,0.2,1.6,0.4,1.9,0.6c0.4,0.2,0.7,0.4,0.9,0.6c0.2,0.2,0.4,0.5,0.5,0.9S296,263.2,296,263.6z"/>
			</g>
			<linearGradient id="SVGID_2_" gradientUnits="userSpaceOnUse" x1="95.2938" y1="291.7921" x2="264.8505" y2="291.7921">
				<stop  offset="0" style="stop-color:#7C1E19"/>
				<stop  offset="0.205" style="stop-color:#AB3532"/>
				<stop  offset="0.4022" style="stop-color:#D95153"/>
				<stop  offset="0.5" style="stop-color:#EB5F62"/>
				<stop  offset="0.5978" style="stop-color:#D95153"/>
				<stop  offset="0.795" style="stop-color:#AB3532"/>
				<stop  offset="1" style="stop-color:#7C1E19"/>
			</linearGradient>
			<path class="st3" d="M188.6,295.7c4,0.6,8.2,9.6,3.1,8.8c-18.6-2.8-13.3-30.7,5.6-23.8c11.5,4.2,18.4,15.8,30.7,18.1
				c6.6,1.2,14.5,1.4,20.8-1.4c3.2-1.4,7.5-3.8,7.7-7.8c0.4-10.1-8.1-3.4-7.3-2.2c3.6,5.6-3.7,6.4-6.5,2c-5.6-8.7,2.4-17,11.7-13.7
				c7.4,2.6,13,14,9.6,21.4c-5,10.9-21,12.8-31.5,10.9c-7.4-1.4-14.3-4-20.2-8.9c-3.4-2.8-6.9-6.7-10.9-8.6c-2-1.1-4.2-1.7-6.5-1.9
				C190.1,288.4,188,290.8,188.6,295.7L188.6,295.7z M171.6,295.7c-4,0.6-8.2,9.6-3.1,8.8c18.6-2.8,13.3-30.7-5.6-23.8
				c-11.5,4.2-18.4,15.8-30.7,18.1c-6.6,1.2-14.5,1.4-20.8-1.4c-3.2-1.4-7.5-3.8-7.7-7.8c-0.4-10.1,8.1-3.4,7.3-2.2
				c-3.6,5.6,3.7,6.4,6.5,2c5.6-8.7-2.4-17-11.7-13.7c-7.4,2.6-13,14-9.6,21.4c5,10.9,21,12.8,31.5,10.9c7.4-1.4,14.3-4,20.2-8.9
				c3.4-2.8,6.9-6.7,10.9-8.6c2-1.1,4.2-1.7,6.5-1.9C170.1,288.4,172.1,290.8,171.6,295.7L171.6,295.7z"/>
		</g>
	</g>
</g>
<rect x="385" y="-8" class="st0" width="415.9" height="394"/>
<g>
	<g>
		<path class="st2" d="M543,40.6c-16.3,0-29.5,19.6-29.5,43.8c0,21.2,10.1,38.9,23.6,43c0.3,5.7,0.4,12.1,0.4,19.6
			c0,48.8-7.5,119.7,5.5,119.7c13,0,6.6-70.9,6.6-119.7c0-7.6,0.2-14.2,0.4-19.9c12.9-4.6,22.5-21.9,22.5-42.6
			C572.4,60.2,559.2,40.6,543,40.6z"/>
		<path class="st2" d="M607.9,128.7V7.3c-25.4,16.5-27.4,87.4-23.3,107.8c1.8,8.9,6.5,14.2,11.2,17.3c-0.9,49-6.4,118,5.6,118
			C614.4,250.5,607.9,177.5,607.9,128.7L607.9,128.7z"/>
		<path class="st2" d="M654.1,42.6h-1.9c0,0,3.3,55.3-1.1,55.3c-4.4,0-4.9-55.3-4.9-55.3h-1.6c0,0,2.3,56-2,56c-4.4,0-2-56-2-56H639
			c0,0-0.5,55.3-4.9,55.3c-4.4,0-1.1-55.3-1.1-55.3h-1.9c0,0-11.4,67.8-5.3,73.7c6.1,5.9,10.5,10.9,10.5,17.1l0.6,15.5
			c0,48.8-7.5,119.7,5.5,119.7c13,0,6.6-70.9,6.6-119.7l0.3-15.4c0-6.2,4.1-11.4,10.2-17.3C665.5,110.4,654.1,42.6,654.1,42.6z"/>
	</g>
	<g>
		<g>
			<linearGradient id="SVGID_3_" gradientUnits="userSpaceOnUse" x1="495.6654" y1="343.4572" x2="690.2256" y2="148.8969">
				<stop  offset="0" style="stop-color:#7C1E19"/>
				<stop  offset="0.205" style="stop-color:#AB3532"/>
				<stop  offset="0.4022" style="stop-color:#D95153"/>
				<stop  offset="0.5" style="stop-color:#EB5F62"/>
				<stop  offset="0.5978" style="stop-color:#D95153"/>
				<stop  offset="0.795" style="stop-color:#AB3532"/>
				<stop  offset="1" style="stop-color:#7C1E19"/>
			</linearGradient>
			<path class="st4" d="M761.3,246.2c0-30-20.8-55-48.7-61.7c-27.2-25.1-70.6-41.3-119.5-41.3c-48.8,0-92.1,16.2-119.4,41.2
				c-28.1,6.5-49.1,31.7-49.1,61.8c0,30.1,21,55.3,49.1,61.8c27.2,25,70.5,41.2,119.4,41.2c48.9,0,92.2-16.2,119.5-41.3
				C740.5,301.2,761.3,276.1,761.3,246.2z"/>
			<path class="st2" d="M593.1,339c-43.8,0-85.4-14.3-111.5-38.2c-1-0.9-2.2-1.6-3.6-1.9c-24.7-5.7-42-27.4-42-52.8
				c0-25.4,17.3-47.1,42-52.8c1.3-0.3,2.6-1,3.6-1.9c26.1-23.9,67.7-38.2,111.5-38.2c43.8,0,85.5,14.3,111.6,38.3
				c1,0.9,2.2,1.6,3.5,1.9c24.5,5.8,41.6,27.5,41.6,52.7c0,25.2-17.1,46.9-41.6,52.7c-1.3,0.3-2.5,1-3.5,1.9
				C678.6,324.7,636.9,339,593.1,339z"/>
		</g>
		<g>
			
				<text transform="matrix(1.0067 0 0 1 483.8085 246.1775)" class="st0" style="font-family:'AlbertusExtraBold'; font-size:42.6508px;">MenusFácil</text>
			<text transform="matrix(0.9066 0 0 1 483.8095 266.6071)" class="st0" style="font-family:'Arimo-Bold'; font-size:15.1289px;">MANAGER DE PEDIDOS Y MENUS</text>
			<linearGradient id="SVGID_4_" gradientUnits="userSpaceOnUse" x1="507.7063" y1="291.7921" x2="677.2631" y2="291.7921">
				<stop  offset="0" style="stop-color:#7C1E19"/>
				<stop  offset="0.205" style="stop-color:#AB3532"/>
				<stop  offset="0.4022" style="stop-color:#D95153"/>
				<stop  offset="0.5" style="stop-color:#EB5F62"/>
				<stop  offset="0.5978" style="stop-color:#D95153"/>
				<stop  offset="0.795" style="stop-color:#AB3532"/>
				<stop  offset="1" style="stop-color:#7C1E19"/>
			</linearGradient>
			<path class="st5" d="M601,295.7c4,0.6,8.2,9.6,3.1,8.8c-18.6-2.8-13.3-30.7,5.6-23.8c11.5,4.2,18.4,15.8,30.7,18.1
				c6.6,1.2,14.5,1.4,20.8-1.4c3.2-1.4,7.5-3.8,7.7-7.8c0.4-10.1-8.1-3.4-7.3-2.2c3.6,5.6-3.7,6.4-6.5,2c-5.6-8.7,2.4-17,11.7-13.7
				c7.4,2.6,13,14,9.6,21.4c-5,10.9-21,12.8-31.5,10.9c-7.4-1.4-14.3-4-20.2-8.9c-3.4-2.8-6.9-6.7-10.9-8.6c-2-1.1-4.2-1.7-6.5-1.9
				C602.5,288.4,600.4,290.8,601,295.7L601,295.7z M584,295.7c-4,0.6-8.2,9.6-3.1,8.8c18.6-2.8,13.3-30.7-5.6-23.8
				c-11.5,4.2-18.4,15.8-30.7,18.1c-6.6,1.2-14.5,1.4-20.8-1.4c-3.2-1.4-7.5-3.8-7.7-7.8c-0.4-10.1,8.1-3.4,7.3-2.2
				c-3.6,5.6,3.7,6.4,6.5,2c5.6-8.7-2.4-17-11.7-13.7c-7.4,2.6-13,14-9.6,21.4c5,10.9,21,12.8,31.5,10.9c7.4-1.4,14.3-4,20.2-8.9
				c3.4-2.8,6.9-6.7,10.9-8.6c2-1.1,4.2-1.7,6.5-1.9C582.5,288.4,584.5,290.8,584,295.7L584,295.7z"/>
		</g>
	</g>
</g>
</svg>
