<?xml version="1.0" encoding="utf-8"?>
<!-- Generator: Adobe Illustrator 19.0.1, SVG Export Plug-In . SVG Version: 6.00 Build 0)  -->
<svg version="1.1" id="Capa_1" xmlns="http://www.w3.org/2000/svg" xmlns:xlink="http://www.w3.org/1999/xlink" x="0px" y="0px"
	 viewBox="0 0 366 359" style="enable-background:new 0 0 366 359;" xml:space="preserve">
<style type="text/css">
	.st0{fill:#2C2624;}
	.st1{fill:url(#SVGID_1_);}
	.st2{fill:#FFFFFF;}
	.st3{fill:url(#SVGID_2_);}
</style>
<g>
	<g>
		<path class="st0" d="M135.6,40.6c-16.3,0-29.5,19.6-29.5,43.8c0,21.2,10.1,38.9,23.6,43c0.3,5.7,0.4,12.1,0.4,19.6
			c0,48.8-7.5,119.7,5.5,119.7c13,0,6.6-70.9,6.6-119.7c0-7.6,0.2-14.2,0.4-19.9c12.9-4.6,22.5-21.9,22.5-42.6
			C165,60.2,151.8,40.6,135.6,40.6z"/>
		<path class="st0" d="M200.5,128.7V7.3c-25.4,16.5-27.4,87.4-23.3,107.8c1.8,8.9,6.5,14.2,11.2,17.3c-0.9,49-6.4,118,5.6,118
			C207,250.5,200.5,177.5,200.5,128.7L200.5,128.7z"/>
		<path class="st0" d="M246.7,42.6h-1.9c0,0,3.3,55.3-1.1,55.3c-4.4,0-4.9-55.3-4.9-55.3h-1.6c0,0,2.3,56-2,56c-4.4,0-2-56-2-56
			h-1.6c0,0-0.5,55.3-4.9,55.3c-4.4,0-1.1-55.3-1.1-55.3h-1.9c0,0-11.4,67.8-5.3,73.7c6.1,5.9,10.5,10.9,10.5,17.1l0.6,15.5
			c0,48.8-7.5,119.7,5.5,119.7c13,0,6.6-70.9,6.6-119.7l0.3-15.4c0-6.2,4.1-11.4,10.2-17.3C258.1,110.4,246.7,42.6,246.7,42.6z"/>
	</g>
	<g>
		<g>
			<linearGradient id="SVGID_1_" gradientUnits="userSpaceOnUse" x1="88.2528" y1="343.4572" x2="282.813" y2="148.8969">
				<stop  offset="0" style="stop-color:#7C1E19"/>
				<stop  offset="0.205" style="stop-color:#AB3532"/>
				<stop  offset="0.4022" style="stop-color:#D95153"/>
				<stop  offset="0.5" style="stop-color:#EB5F62"/>
				<stop  offset="0.5978" style="stop-color:#D95153"/>
				<stop  offset="0.795" style="stop-color:#AB3532"/>
				<stop  offset="1" style="stop-color:#7C1E19"/>
			</linearGradient>
			<path class="st1" d="M353.9,246.2c0-30-20.8-55-48.7-61.7c-27.2-25.1-70.6-41.3-119.5-41.3c-48.8,0-92.1,16.2-119.4,41.2
				c-28.1,6.5-49.1,31.7-49.1,61.8c0,30.1,21,55.3,49.1,61.8c27.2,25,70.5,41.2,119.4,41.2c48.9,0,92.2-16.2,119.5-41.3
				C333.1,301.2,353.9,276.1,353.9,246.2z"/>
			<path class="st2" d="M185.7,339c-43.8,0-85.4-14.3-111.5-38.2c-1-0.9-2.2-1.6-3.6-1.9c-24.7-5.7-42-27.4-42-52.8
				c0-25.4,17.3-47.1,42-52.8c1.3-0.3,2.6-1,3.6-1.9c26.1-23.9,67.7-38.2,111.5-38.2c43.8,0,85.5,14.3,111.6,38.3
				c1,0.9,2.2,1.6,3.5,1.9c24.5,5.8,41.6,27.5,41.6,52.7c0,25.2-17.1,46.9-41.6,52.7c-1.3,0.3-2.5,1-3.5,1.9
				C271.2,324.7,229.5,339,185.7,339z"/>
		</g>
		<g>
			<g>
				<path class="st0" d="M76.2,213.7h12.7c0,1.1,0.2,2,0.7,2.7l8.2,10.2l8.8-10.6c0.4-0.5,0.7-1,0.8-1.3c0.1-0.3,0.1-0.7,0.1-1h9.7
					c-1.6,3-2.4,6.2-2.4,9.6v13c0,4.9,0.4,8.2,1.1,9.9h-10.8c0.7-1.7,1.1-5,1.1-9.9v-9.6l-8.4,11.2l-8.5-11.2v9.6
					c0,4.2,0.4,7.5,1.1,9.9H79.5c0.7-2.2,1.1-5.5,1.1-9.9V219L76.2,213.7z"/>
				<path class="st0" d="M139.9,233.3c0,0.8-0.1,1.8-0.3,3h-11.9c0.3,1.4,1,2.6,2.1,3.6c1.1,1,2.5,1.4,4.2,1.4c1.1,0,2.1-0.1,3-0.4
					c0.9-0.3,1.9-0.8,2.9-1.4l-2.7,6.6c-1.5,0.3-3,0.5-4.6,0.5c-4,0-7.2-1-9.6-3c-2.4-2-3.6-4.9-3.6-8.7c0-3.6,1-6.4,3.1-8.6
					c2.1-2.2,4.8-3.3,8-3.3c2.8,0,5,0.9,6.8,2.7C139,227.6,139.9,230.1,139.9,233.3z M130.3,227.5c-1,0-1.8,0.4-2.2,1.1
					c-0.5,0.7-0.8,1.8-0.9,3.4h5.8C133.1,229,132.2,227.5,130.3,227.5z"/>
				<path class="st0" d="M141.8,223.6h8.8v4.2l4.4-4.4c0.9-0.1,1.6-0.2,2.1-0.2c2.1,0,3.7,0.6,4.9,1.9c1.2,1.2,1.8,3.1,1.8,5.4v10.2
					c0,1.8,0.4,3.6,1.1,5.6h-10c0.7-2.2,1.1-4.1,1.1-5.6v-6.7c0-2.1-0.2-3.4-0.7-3.9c-0.5-0.5-1.2-0.8-2.1-0.8
					c-0.8,0-1.6,0.2-2.4,0.7V240c0,1.7,0.4,3.8,1.1,6.2h-10c0.7-2.1,1.1-3.8,1.1-5.3v-9.3V231C142.9,228.2,142.6,225.7,141.8,223.6z
					"/>
				<path class="st0" d="M166.8,223.6h10c-0.7,1.9-1.1,4.1-1.1,6.5v8.2c0,1.9,0.8,2.8,2.5,2.9c0.9,0,1.8-0.3,2.8-1v-10.5
					c0-1.9-0.4-4-1.1-6.2h10c-0.7,1.9-1.1,3.8-1.1,5.6v10.5c0,2.2,0.4,4.4,1.1,6.5H181v-2.7l-4.2,3.1c-0.3,0-0.7,0-1.2,0
					c-2.2,0-4.1-0.6-5.5-1.9c-1.4-1.3-2.2-3.2-2.2-5.7v-10.8C167.9,226.8,167.5,225.2,166.8,223.6z"/>
				<path class="st0" d="M192.2,239.8c1.4,0.8,2.4,1.3,3.2,1.5c0.8,0.2,1.5,0.3,2.3,0.3c0.7,0,1.3-0.1,1.8-0.4
					c0.5-0.3,0.8-0.7,0.8-1.3c0-0.7-0.3-1.3-1-2c-0.7-0.6-1.4-1.2-2.3-1.8c-1.5-1.1-2.6-2-3.2-2.8c-0.6-0.8-0.9-1.9-0.9-3.2
					c0-2.1,0.9-3.8,2.6-5.1c1.8-1.4,4-2,6.8-2c1.8,0,3.6,0.3,5.5,0.8v5.4c-1-0.5-1.9-0.8-2.5-1c-0.6-0.2-1.2-0.3-1.9-0.3
					c-0.8,0-1.4,0.1-1.8,0.4c-0.4,0.3-0.6,0.6-0.6,1.1c0,0.6,0.5,1.3,1.5,2c1,0.7,1.8,1.3,2.4,1.8c2.4,1.8,3.6,3.9,3.6,6.2
					c0,1.9-0.8,3.6-2.4,5c-1.6,1.4-3.9,2-7,2c-2.7,0-4.9-0.3-6.9-1V239.8z"/>
				<path class="st0" d="M212.6,246.2c0.7-2.4,1.1-4.3,1.1-5.8v-20.5c0-2-0.4-4.1-1.1-6.1h20.9l-3.6,6.8c-2.9-0.7-5.4-1.1-7.6-1.1
					v7.7h9.9l-3.4,6.8c-2.8-0.7-4.9-1.1-6.5-1.1v7.2c0,1.8,0.4,3.9,1.1,6.2H212.6z"/>
				<path class="st0" d="M236.9,229.6l1.5-5.5c1.7-0.4,3-0.7,3.9-0.8c0.9-0.1,1.7-0.2,2.5-0.2c2.7,0,4.9,0.7,6.5,2
					c1.6,1.4,2.4,3.6,2.4,6.8v9v0.3c0,1.4,0.4,3.1,1.1,5h-8.3v-2.1l-3.7,2.5c-0.5,0.1-1,0.1-1.4,0.1c-1.7,0-3.3-0.6-4.7-1.7
					c-1.4-1.2-2-2.7-2-4.7c0-3.4,2.9-6,8.8-7.7l2.8-0.9c0-0.9-0.4-1.7-1.1-2.4c-0.7-0.7-1.7-1-3.1-1c-0.8,0-1.6,0.1-2.3,0.3
					C239.2,228.6,238.2,229,236.9,229.6z M241.3,220.9c1.4-2.1,2.4-4.6,3.1-7.4h9c-2.3,2.1-4.5,4.6-6.6,7.4H241.3z M242.3,236.8
					c-0.6,0.9-0.9,1.7-0.9,2.6c0,0.6,0.2,1.2,0.6,1.7c0.4,0.5,1,0.8,1.8,0.8c0.3,0,0.6,0,0.9-0.1c0.3-0.1,0.8-0.2,1.5-0.5v-4.5
					H242.3z"/>
				<path class="st0" d="M275.4,239.6l-2.9,6.5c-1.3,0.4-2.7,0.6-4.1,0.6c-3.5,0-6.4-1.1-8.7-3.2s-3.4-4.9-3.4-8.4
					c0-3.4,1.2-6.3,3.6-8.6c2.4-2.3,5.5-3.4,9.3-3.4c1.7,0,3.5,0.3,5.3,0.8l-0.4,5.8c-1.1-0.6-1.9-0.9-2.5-1.1
					c-0.6-0.2-1.2-0.3-1.8-0.3c-1.6,0-3,0.5-4,1.6c-1.1,1.1-1.6,2.6-1.6,4.6c0,1.8,0.5,3.4,1.4,4.7c1,1.3,2.4,2,4.3,2
					c1.3,0,2.4-0.2,3.3-0.7C274.2,240.2,274.9,239.8,275.4,239.6z"/>
				<path class="st0" d="M277.1,246.2c0.7-2,1.1-3.7,1.1-5.3v-11.1c0-2-0.4-4-1.1-6.2h10c-0.7,1.9-1.1,3.9-1.1,5.9v12.1
					c0,1.8,0.4,3.4,1.1,4.6H277.1z M277.5,216.9c0-1.2,0.4-2.2,1.2-3.1c0.8-0.9,2-1.4,3.4-1.4c1.3,0,2.4,0.4,3.3,1.3
					c0.9,0.9,1.4,2,1.4,3.2c0,1.2-0.4,2.3-1.2,3.2c-0.8,0.9-1.9,1.3-3.2,1.3c-1.6,0-2.7-0.4-3.6-1.3
					C277.9,219.2,277.5,218.1,277.5,216.9z"/>
				<path class="st0" d="M289.9,214.7l10-1c-0.7,1.7-1.1,4-1.1,6.8V240c0,1.9,0.4,4,1.1,6.2h-10c0.7-1.8,1.1-4.4,1.1-7.7v-16.6v-1
					C291,218.2,290.6,216.2,289.9,214.7z"/>
			</g>
			<g>
				<path class="st0" d="M85.2,266.6v-6.3c0-0.1,0-0.3,0-0.4c0-0.1,0-0.8,0.1-1.8c-0.3,1.3-0.6,2.2-0.7,2.8l-1.7,5.8h-1.4l-1.7-5.8
					L79,258c0.1,1.1,0.1,1.9,0.1,2.3v6.3h-1.8v-10.4H80l1.7,5.8l0.1,0.6l0.3,1.4l0.4-1.7l1.7-6.1h2.6v10.4H85.2z"/>
				<path class="st0" d="M95.4,266.6l-0.8-2.7H91l-0.8,2.7h-2l3.4-10.4h2.3l3.4,10.4H95.4z M92.8,257.8l0,0.2c0,0.2-0.1,0.4-0.2,0.6
					s-0.4,1.5-1.2,3.7h2.7l-0.9-3l-0.3-1L92.8,257.8z"/>
				<path class="st0" d="M104.4,266.6l-4.1-8c0.1,0.8,0.1,1.4,0.1,1.9v6.1h-1.8v-10.4h2.3l4.2,8.1c-0.1-0.7-0.1-1.4-0.1-2v-6.1h1.8
					v10.4H104.4z"/>
				<path class="st0" d="M115.2,266.6l-0.8-2.7h-3.6l-0.8,2.7h-2l3.4-10.4h2.3l3.4,10.4H115.2z M112.6,257.8l0,0.2
					c0,0.2-0.1,0.4-0.2,0.6s-0.4,1.5-1.2,3.7h2.7l-0.9-3l-0.3-1L112.6,257.8z"/>
				<path class="st0" d="M122.9,265c0.5,0,1-0.1,1.5-0.2c0.5-0.2,0.9-0.4,1.1-0.6v-1.4h-2.3v-1.6h4.1v3.8c-0.5,0.6-1.2,1-2,1.3
					c-0.8,0.3-1.6,0.5-2.5,0.5c-1.5,0-2.7-0.5-3.5-1.4c-0.8-0.9-1.2-2.3-1.2-4c0-1.7,0.4-3,1.2-3.9c0.8-0.9,2-1.4,3.6-1.4
					c2.2,0,3.6,0.9,4.2,2.7l-1.8,0.6c-0.2-0.5-0.5-0.9-0.9-1.2c-0.4-0.3-0.9-0.4-1.5-0.4c-0.9,0-1.6,0.3-2.1,0.9
					c-0.5,0.6-0.7,1.5-0.7,2.7c0,1.2,0.2,2.1,0.7,2.7C121.3,264.7,122,265,122.9,265z"/>
				<path class="st0" d="M129.1,266.6v-10.4h7.4v1.7h-5.4v2.6h5v1.7h-5v2.7h5.7v1.7H129.1z"/>
				<path class="st0" d="M144.8,266.6l-2.2-4h-2.3v4h-2v-10.4h4.7c1.1,0,2,0.3,2.6,0.8s0.9,1.3,0.9,2.3c0,0.7-0.2,1.4-0.6,1.9
					s-0.9,0.9-1.5,1l2.6,4.4H144.8z M144.5,259.4c0-1-0.6-1.5-1.7-1.5h-2.5v3.1h2.6c0.6,0,1-0.1,1.3-0.4
					C144.4,260.3,144.5,259.9,144.5,259.4z"/>
				<path class="st0" d="M160.4,261.3c0,1.1-0.2,2-0.6,2.8s-0.9,1.4-1.6,1.8s-1.5,0.6-2.4,0.6H152v-10.4h3.4c1.6,0,2.8,0.4,3.7,1.3
					C160,258.4,160.4,259.7,160.4,261.3z M158.4,261.3c0-1.1-0.3-2-0.8-2.6s-1.3-0.9-2.3-0.9H154v7h1.7c0.8,0,1.5-0.3,2-1
					S158.4,262.4,158.4,261.3z"/>
				<path class="st0" d="M161.9,266.6v-10.4h7.4v1.7h-5.4v2.6h5v1.7h-5v2.7h5.7v1.7H161.9z"/>
				<path class="st0" d="M182.6,259.5c0,0.7-0.1,1.3-0.4,1.8c-0.3,0.5-0.7,0.9-1.2,1.2c-0.5,0.3-1.1,0.4-1.8,0.4h-2.3v3.7h-2v-10.4
					h4.2c1.1,0,2,0.3,2.6,0.9S182.6,258.4,182.6,259.5z M180.6,259.5c0-1.1-0.6-1.6-1.8-1.6h-2v3.4h2.1c0.5,0,1-0.1,1.3-0.4
					C180.5,260.5,180.6,260.1,180.6,259.5z"/>
				<path class="st0" d="M184,266.6v-10.4h7.4v1.7H186v2.6h5v1.7h-5v2.7h5.7v1.7H184z"/>
				<path class="st0" d="M201.6,261.3c0,1.1-0.2,2-0.6,2.8s-0.9,1.4-1.6,1.8s-1.5,0.6-2.4,0.6h-3.8v-10.4h3.4c1.6,0,2.8,0.4,3.7,1.3
					C201.1,258.4,201.6,259.7,201.6,261.3z M199.6,261.3c0-1.1-0.3-2-0.8-2.6s-1.3-0.9-2.3-0.9h-1.4v7h1.7c0.8,0,1.5-0.3,2-1
					S199.6,262.4,199.6,261.3z"/>
				<path class="st0" d="M203.1,266.6v-10.4h2v10.4H203.1z"/>
				<path class="st0" d="M215.3,261.3c0,1.1-0.2,2-0.6,2.8s-0.9,1.4-1.6,1.8s-1.5,0.6-2.4,0.6h-3.8v-10.4h3.4c1.6,0,2.8,0.4,3.7,1.3
					C214.8,258.4,215.3,259.7,215.3,261.3z M213.3,261.3c0-1.1-0.3-2-0.8-2.6s-1.3-0.9-2.3-0.9h-1.4v7h1.7c0.8,0,1.5-0.3,2-1
					S213.3,262.4,213.3,261.3z"/>
				<path class="st0" d="M226,261.4c0,1.1-0.2,2-0.6,2.9c-0.4,0.8-0.9,1.5-1.7,1.9c-0.7,0.4-1.6,0.7-2.5,0.7c-1.5,0-2.6-0.5-3.5-1.4
					c-0.8-1-1.3-2.3-1.3-4c0-1.7,0.4-3,1.3-3.9c0.8-0.9,2-1.4,3.5-1.4c1.5,0,2.7,0.5,3.5,1.4C225.5,258.4,226,259.7,226,261.4z
					 M223.9,261.4c0-1.1-0.2-2-0.7-2.6c-0.5-0.6-1.2-1-2-1c-0.9,0-1.6,0.3-2,0.9c-0.5,0.6-0.7,1.5-0.7,2.6c0,1.1,0.2,2,0.7,2.7
					c0.5,0.7,1.2,1,2,1c0.9,0,1.6-0.3,2-1C223.7,263.4,223.9,262.5,223.9,261.4z"/>
				<path class="st0" d="M235.1,263.6c0,1-0.3,1.8-1,2.3s-1.7,0.8-3,0.8c-1.2,0-2.2-0.2-2.8-0.7s-1.1-1.2-1.3-2.1l1.9-0.3
					c0.1,0.6,0.4,1,0.8,1.2c0.4,0.2,0.9,0.4,1.6,0.4c1.4,0,2.1-0.5,2.1-1.4c0-0.3-0.1-0.5-0.2-0.7c-0.2-0.2-0.4-0.4-0.7-0.5
					s-0.8-0.3-1.7-0.5c-0.7-0.2-1.2-0.3-1.5-0.4s-0.5-0.2-0.8-0.4c-0.2-0.2-0.4-0.3-0.6-0.5c-0.2-0.2-0.3-0.5-0.4-0.7
					s-0.1-0.6-0.1-1c0-0.9,0.3-1.7,1-2.2c0.6-0.5,1.6-0.7,2.8-0.7c1.2,0,2,0.2,2.6,0.6c0.6,0.4,1,1.1,1.1,2l-1.9,0.3
					c-0.1-0.4-0.3-0.8-0.6-1c-0.3-0.2-0.7-0.3-1.3-0.3c-1.2,0-1.8,0.4-1.8,1.2c0,0.3,0.1,0.5,0.2,0.7c0.1,0.2,0.3,0.3,0.6,0.4
					s0.8,0.3,1.5,0.5c0.9,0.2,1.6,0.4,1.9,0.6c0.4,0.2,0.7,0.4,0.9,0.6c0.2,0.2,0.4,0.5,0.5,0.9S235.1,263.2,235.1,263.6z"/>
				<path class="st0" d="M244.8,262.3v4.3h-2v-4.3l-3.4-6.1h2.1l2.3,4.4l2.3-4.4h2.1L244.8,262.3z"/>
				<path class="st0" d="M260.7,266.6v-6.3c0-0.1,0-0.3,0-0.4c0-0.1,0-0.8,0.1-1.8c-0.3,1.3-0.6,2.2-0.7,2.8l-1.7,5.8H257l-1.7-5.8
					l-0.7-2.8c0.1,1.1,0.1,1.9,0.1,2.3v6.3h-1.8v-10.4h2.6l1.7,5.8l0.1,0.6l0.3,1.4l0.4-1.7l1.7-6.1h2.6v10.4H260.7z"/>
				<path class="st0" d="M264.3,266.6v-10.4h7.4v1.7h-5.4v2.6h5v1.7h-5v2.7h5.7v1.7H264.3z"/>
				<path class="st0" d="M279.2,266.6l-4.1-8c0.1,0.8,0.1,1.4,0.1,1.9v6.1h-1.8v-10.4h2.3l4.2,8.1c-0.1-0.7-0.1-1.4-0.1-2v-6.1h1.8
					v10.4H279.2z"/>
				<path class="st0" d="M287.3,266.8c-1.3,0-2.3-0.3-3-1c-0.7-0.7-1-1.7-1-3v-6.5h2v6.3c0,0.8,0.2,1.4,0.5,1.9
					c0.4,0.4,0.9,0.6,1.6,0.6c0.7,0,1.2-0.2,1.6-0.7s0.6-1.1,0.6-1.9v-6.3h2v6.4c0,1.3-0.4,2.3-1.1,3.1S288.6,266.8,287.3,266.8z"/>
				<path class="st0" d="M301,263.6c0,1-0.3,1.8-1,2.3s-1.7,0.8-3,0.8c-1.2,0-2.2-0.2-2.8-0.7s-1.1-1.2-1.3-2.1l1.9-0.3
					c0.1,0.6,0.4,1,0.8,1.2c0.4,0.2,0.9,0.4,1.6,0.4c1.4,0,2.1-0.5,2.1-1.4c0-0.3-0.1-0.5-0.2-0.7c-0.2-0.2-0.4-0.4-0.7-0.5
					s-0.8-0.3-1.7-0.5c-0.7-0.2-1.2-0.3-1.5-0.4s-0.5-0.2-0.8-0.4c-0.2-0.2-0.4-0.3-0.6-0.5c-0.2-0.2-0.3-0.5-0.4-0.7
					s-0.1-0.6-0.1-1c0-0.9,0.3-1.7,1-2.2c0.6-0.5,1.6-0.7,2.8-0.7c1.2,0,2,0.2,2.6,0.6c0.6,0.4,1,1.1,1.1,2l-1.9,0.3
					c-0.1-0.4-0.3-0.8-0.6-1c-0.3-0.2-0.7-0.3-1.3-0.3c-1.2,0-1.8,0.4-1.8,1.2c0,0.3,0.1,0.5,0.2,0.7c0.1,0.2,0.3,0.3,0.6,0.4
					s0.8,0.3,1.5,0.5c0.9,0.2,1.6,0.4,1.9,0.6c0.4,0.2,0.7,0.4,0.9,0.6c0.2,0.2,0.4,0.5,0.5,0.9S301,263.2,301,263.6z"/>
			</g>
			<linearGradient id="SVGID_2_" gradientUnits="userSpaceOnUse" x1="100.2938" y1="291.7921" x2="269.8505" y2="291.7921">
				<stop  offset="0" style="stop-color:#7C1E19"/>
				<stop  offset="0.205" style="stop-color:#AB3532"/>
				<stop  offset="0.4022" style="stop-color:#D95153"/>
				<stop  offset="0.5" style="stop-color:#EB5F62"/>
				<stop  offset="0.5978" style="stop-color:#D95153"/>
				<stop  offset="0.795" style="stop-color:#AB3532"/>
				<stop  offset="1" style="stop-color:#7C1E19"/>
			</linearGradient>
			<path class="st3" d="M193.6,295.7c4,0.6,8.2,9.6,3.1,8.8c-18.6-2.8-13.3-30.7,5.6-23.8c11.5,4.2,18.4,15.8,30.7,18.1
				c6.6,1.2,14.5,1.4,20.8-1.4c3.2-1.4,7.5-3.8,7.7-7.8c0.4-10.1-8.1-3.4-7.3-2.2c3.6,5.6-3.7,6.4-6.5,2c-5.6-8.7,2.4-17,11.7-13.7
				c7.4,2.6,13,14,9.6,21.4c-5,10.9-21,12.8-31.5,10.9c-7.4-1.4-14.3-4-20.2-8.9c-3.4-2.8-6.9-6.7-10.9-8.6c-2-1.1-4.2-1.7-6.5-1.9
				C195.1,288.4,193,290.8,193.6,295.7L193.6,295.7z M176.6,295.7c-4,0.6-8.2,9.6-3.1,8.8c18.6-2.8,13.3-30.7-5.6-23.8
				c-11.5,4.2-18.4,15.8-30.7,18.1c-6.6,1.2-14.5,1.4-20.8-1.4c-3.2-1.4-7.5-3.8-7.7-7.8c-0.4-10.1,8.1-3.4,7.3-2.2
				c-3.6,5.6,3.7,6.4,6.5,2c5.6-8.7-2.4-17-11.7-13.7c-7.4,2.6-13,14-9.6,21.4c5,10.9,21,12.8,31.5,10.9c7.4-1.4,14.3-4,20.2-8.9
				c3.4-2.8,6.9-6.7,10.9-8.6c2-1.1,4.2-1.7,6.5-1.9C175.1,288.4,177.1,290.8,176.6,295.7L176.6,295.7z"/>
		</g>
	</g>
</g>
</svg>
