<?xml version="1.0" encoding="utf-8"?>
<!-- Generator: Adobe Illustrator 19.0.1, SVG Export Plug-In . SVG Version: 6.00 Build 0)  -->
<svg version="1.1" id="Capa_1" xmlns="http://www.w3.org/2000/svg" xmlns:xlink="http://www.w3.org/1999/xlink" x="0px" y="0px"
	 viewBox="0 0 409.9 394" style="enable-background:new 0 0 409.9 394;" xml:space="preserve">
<style type="text/css">
	.st0{fill:#2C2624;}
	.st1{fill:url(#SVGID_1_);}
	.st2{fill:#FFFFFF;}
	.st3{fill:url(#SVGID_2_);}
	.st4{fill:url(#SVGID_3_);}
	.st5{fill:url(#SVGID_4_);}
</style>
<g>
	<g>
		<path class="st0" d="M-260.4,48.6c-16.3,0-29.5,19.6-29.5,43.8c0,21.2,10.1,38.9,23.6,43c0.3,5.7,0.4,12.1,0.4,19.6
			c0,48.8-7.5,119.7,5.5,119.7c13,0,6.6-70.9,6.6-119.7c0-7.6,0.2-14.2,0.4-19.9c12.9-4.6,22.5-21.9,22.5-42.6
			C-231,68.2-244.2,48.6-260.4,48.6z"/>
		<path class="st0" d="M-195.5,136.7V15.3c-25.4,16.5-27.4,87.4-23.3,107.8c1.8,8.9,6.5,14.2,11.2,17.3c-0.9,49-6.4,118,5.6,118
			C-189,258.5-195.5,185.5-195.5,136.7L-195.5,136.7z"/>
		<path class="st0" d="M-149.3,50.6h-1.9c0,0,3.3,55.3-1.1,55.3c-4.4,0-4.9-55.3-4.9-55.3h-1.6c0,0,2.3,56-2,56c-4.4,0-2-56-2-56
			h-1.6c0,0-0.5,55.3-4.9,55.3c-4.4,0-1.1-55.3-1.1-55.3h-1.9c0,0-11.4,67.8-5.3,73.7c6.1,5.9,10.5,10.9,10.5,17.1l0.6,15.5
			c0,48.8-7.5,119.7,5.5,119.7c13,0,6.6-70.9,6.6-119.7l0.3-15.4c0-6.2,4.1-11.4,10.2-17.3C-137.9,118.4-149.3,50.6-149.3,50.6z"/>
	</g>
	<g>
		<g>
			<linearGradient id="SVGID_1_" gradientUnits="userSpaceOnUse" x1="-307.7472" y1="351.4572" x2="-113.1869" y2="156.8969">
				<stop  offset="0" style="stop-color:#7C1E19"/>
				<stop  offset="0.205" style="stop-color:#AB3532"/>
				<stop  offset="0.4022" style="stop-color:#D95153"/>
				<stop  offset="0.5" style="stop-color:#EB5F62"/>
				<stop  offset="0.5978" style="stop-color:#D95153"/>
				<stop  offset="0.795" style="stop-color:#AB3532"/>
				<stop  offset="1" style="stop-color:#7C1E19"/>
			</linearGradient>
			<path class="st1" d="M-42.1,254.2c0-30-20.8-55-48.7-61.7c-27.2-25.1-70.6-41.3-119.5-41.3c-48.8,0-92.1,16.2-119.4,41.2
				c-28.1,6.5-49.1,31.7-49.1,61.8c0,30.1,21,55.3,49.1,61.8c27.2,25,70.5,41.2,119.4,41.2c48.9,0,92.2-16.2,119.5-41.3
				C-62.9,309.2-42.1,284.1-42.1,254.2z"/>
			<path class="st2" d="M-210.3,347c-43.8,0-85.4-14.3-111.5-38.2c-1-0.9-2.2-1.6-3.6-1.9c-24.7-5.7-42-27.4-42-52.8
				c0-25.4,17.3-47.1,42-52.8c1.3-0.3,2.6-1,3.6-1.9c26.1-23.9,67.7-38.2,111.5-38.2c43.8,0,85.5,14.3,111.6,38.3
				c1,0.9,2.2,1.6,3.5,1.9c24.5,5.8,41.6,27.5,41.6,52.7c0,25.2-17.1,46.9-41.6,52.7c-1.3,0.3-2.5,1-3.5,1.9
				C-124.8,332.7-166.5,347-210.3,347z"/>
		</g>
		<g>
			
				<text transform="matrix(1.0067 0 0 1 -319.6041 254.1775)" class="st0" style="font-family:'AlbertusExtraBold'; font-size:42.6508px;">MenusFácil</text>
			<text transform="matrix(0.9066 0 0 1 -319.6031 274.6071)" class="st0" style="font-family:'Arimo-Bold'; font-size:15.1289px;">MANAGER DE PEDIDOS Y MENUS</text>
			<linearGradient id="SVGID_2_" gradientUnits="userSpaceOnUse" x1="-295.7062" y1="299.7921" x2="-126.1495" y2="299.7921">
				<stop  offset="0" style="stop-color:#7C1E19"/>
				<stop  offset="0.205" style="stop-color:#AB3532"/>
				<stop  offset="0.4022" style="stop-color:#D95153"/>
				<stop  offset="0.5" style="stop-color:#EB5F62"/>
				<stop  offset="0.5978" style="stop-color:#D95153"/>
				<stop  offset="0.795" style="stop-color:#AB3532"/>
				<stop  offset="1" style="stop-color:#7C1E19"/>
			</linearGradient>
			<path class="st3" d="M-202.4,303.7c4,0.6,8.2,9.6,3.1,8.8c-18.6-2.8-13.3-30.7,5.6-23.8c11.5,4.2,18.4,15.8,30.7,18.1
				c6.6,1.2,14.5,1.4,20.8-1.4c3.2-1.4,7.5-3.8,7.7-7.8c0.4-10.1-8.1-3.4-7.3-2.2c3.6,5.6-3.7,6.4-6.5,2c-5.6-8.7,2.4-17,11.7-13.7
				c7.4,2.6,13,14,9.6,21.4c-5,10.9-21,12.8-31.5,10.9c-7.4-1.4-14.3-4-20.2-8.9c-3.4-2.8-6.9-6.7-10.9-8.6c-2-1.1-4.2-1.7-6.5-1.9
				C-200.9,296.4-203,298.8-202.4,303.7L-202.4,303.7z M-219.4,303.7c-4,0.6-8.2,9.6-3.1,8.8c18.6-2.8,13.3-30.7-5.6-23.8
				c-11.5,4.2-18.4,15.8-30.7,18.1c-6.6,1.2-14.5,1.4-20.8-1.4c-3.2-1.4-7.5-3.8-7.7-7.8c-0.4-10.1,8.1-3.4,7.3-2.2
				c-3.6,5.6,3.7,6.4,6.5,2c5.6-8.7-2.4-17-11.7-13.7c-7.4,2.6-13,14-9.6,21.4c5,10.9,21,12.8,31.5,10.9c7.4-1.4,14.3-4,20.2-8.9
				c3.4-2.8,6.9-6.7,10.9-8.6c2-1.1,4.2-1.7,6.5-1.9C-220.9,296.4-218.9,298.8-219.4,303.7L-219.4,303.7z"/>
		</g>
	</g>
</g>
<g>
	<g>
		<path class="st2" d="M152,48.6c-16.3,0-29.5,19.6-29.5,43.8c0,21.2,10.1,38.9,23.6,43c0.3,5.7,0.4,12.1,0.4,19.6
			c0,48.8-7.5,119.7,5.5,119.7c13,0,6.6-70.9,6.6-119.7c0-7.6,0.2-14.2,0.4-19.9c12.9-4.6,22.5-21.9,22.5-42.6
			C181.4,68.2,168.2,48.6,152,48.6z"/>
		<path class="st2" d="M216.9,136.7V15.3c-25.4,16.5-27.4,87.4-23.3,107.8c1.8,8.9,6.5,14.2,11.2,17.3c-0.9,49-6.4,118,5.6,118
			C223.4,258.5,216.9,185.5,216.9,136.7L216.9,136.7z"/>
		<path class="st2" d="M263.1,50.6h-1.9c0,0,3.3,55.3-1.1,55.3c-4.4,0-4.9-55.3-4.9-55.3h-1.6c0,0,2.3,56-2,56c-4.4,0-2-56-2-56H248
			c0,0-0.5,55.3-4.9,55.3c-4.4,0-1.1-55.3-1.1-55.3h-1.9c0,0-11.4,67.8-5.3,73.7c6.1,5.9,10.5,10.9,10.5,17.1l0.6,15.5
			c0,48.8-7.5,119.7,5.5,119.7c13,0,6.6-70.9,6.6-119.7l0.3-15.4c0-6.2,4.1-11.4,10.2-17.3C274.5,118.4,263.1,50.6,263.1,50.6z"/>
	</g>
	<g>
		<g>
			<linearGradient id="SVGID_3_" gradientUnits="userSpaceOnUse" x1="104.6654" y1="351.4572" x2="299.2256" y2="156.8969">
				<stop  offset="0" style="stop-color:#7C1E19"/>
				<stop  offset="0.205" style="stop-color:#AB3532"/>
				<stop  offset="0.4022" style="stop-color:#D95153"/>
				<stop  offset="0.5" style="stop-color:#EB5F62"/>
				<stop  offset="0.5978" style="stop-color:#D95153"/>
				<stop  offset="0.795" style="stop-color:#AB3532"/>
				<stop  offset="1" style="stop-color:#7C1E19"/>
			</linearGradient>
			<path class="st4" d="M370.3,254.2c0-30-20.8-55-48.7-61.7c-27.2-25.1-70.6-41.3-119.5-41.3c-48.8,0-92.1,16.2-119.4,41.2
				c-28.1,6.5-49.1,31.7-49.1,61.8c0,30.1,21,55.3,49.1,61.8c27.2,25,70.5,41.2,119.4,41.2c48.9,0,92.2-16.2,119.5-41.3
				C349.5,309.2,370.3,284.1,370.3,254.2z"/>
			<path class="st2" d="M202.1,347c-43.8,0-85.4-14.3-111.5-38.2c-1-0.9-2.2-1.6-3.6-1.9c-24.7-5.7-42-27.4-42-52.8
				c0-25.4,17.3-47.1,42-52.8c1.3-0.3,2.6-1,3.6-1.9c26.1-23.9,67.7-38.2,111.5-38.2c43.8,0,85.5,14.3,111.6,38.3
				c1,0.9,2.2,1.6,3.5,1.9c24.5,5.8,41.6,27.5,41.6,52.7c0,25.2-17.1,46.9-41.6,52.7c-1.3,0.3-2.5,1-3.5,1.9
				C287.6,332.7,245.9,347,202.1,347z"/>
		</g>
		<g>
			<g>
				<path class="st0" d="M92.7,221.7h12.7c0,1.1,0.2,2,0.7,2.7l8.2,10.2L123,224c0.4-0.5,0.7-1,0.8-1.3c0.1-0.3,0.1-0.7,0.1-1h9.7
					c-1.6,3-2.4,6.2-2.4,9.6v13c0,4.9,0.4,8.2,1.1,9.9h-10.8c0.7-1.7,1.1-5,1.1-9.9v-9.6l-8.4,11.2l-8.5-11.2v9.6
					c0,4.2,0.4,7.5,1.1,9.9H95.9c0.7-2.2,1.1-5.5,1.1-9.9V227L92.7,221.7z"/>
				<path class="st0" d="M156.3,241.3c0,0.8-0.1,1.8-0.3,3h-11.9c0.3,1.4,1,2.6,2.1,3.6c1.1,1,2.5,1.4,4.2,1.4c1.1,0,2.1-0.1,3-0.4
					c0.9-0.3,1.9-0.8,2.9-1.4l-2.7,6.6c-1.5,0.3-3,0.5-4.6,0.5c-4,0-7.2-1-9.6-3c-2.4-2-3.6-4.9-3.6-8.7c0-3.6,1-6.4,3.1-8.6
					c2.1-2.2,4.8-3.3,8-3.3c2.8,0,5,0.9,6.8,2.7C155.4,235.6,156.3,238.1,156.3,241.3z M146.8,235.5c-1,0-1.8,0.4-2.2,1.1
					c-0.5,0.7-0.8,1.8-0.9,3.4h5.8C149.5,237,148.6,235.5,146.8,235.5z"/>
				<path class="st0" d="M158.3,231.6h8.8v4.2l4.4-4.4c0.9-0.1,1.6-0.2,2.1-0.2c2.1,0,3.7,0.6,4.9,1.9c1.2,1.2,1.8,3.1,1.8,5.4v10.2
					c0,1.8,0.4,3.6,1.1,5.6h-10c0.7-2.2,1.1-4.1,1.1-5.6v-6.7c0-2.1-0.2-3.4-0.7-3.9c-0.5-0.5-1.2-0.8-2.1-0.8
					c-0.8,0-1.6,0.2-2.4,0.7V248c0,1.7,0.4,3.8,1.1,6.2h-10c0.7-2.1,1.1-3.8,1.1-5.3v-9.3V239C159.4,236.2,159,233.7,158.3,231.6z"
					/>
				<path class="st0" d="M183.2,231.6h10c-0.7,1.9-1.1,4.1-1.1,6.5v8.2c0,1.9,0.8,2.8,2.5,2.9c0.9,0,1.8-0.3,2.8-1v-10.5
					c0-1.9-0.4-4-1.1-6.2h10c-0.7,1.9-1.1,3.8-1.1,5.6v10.5c0,2.2,0.4,4.4,1.1,6.5h-8.9v-2.7l-4.2,3.1c-0.3,0-0.7,0-1.2,0
					c-2.2,0-4.1-0.6-5.5-1.9c-1.4-1.3-2.2-3.2-2.2-5.7v-10.8C184.3,234.8,184,233.2,183.2,231.6z"/>
				<path class="st0" d="M208.7,247.8c1.4,0.8,2.4,1.3,3.2,1.5c0.8,0.2,1.5,0.3,2.3,0.3c0.7,0,1.3-0.1,1.8-0.4
					c0.5-0.3,0.8-0.7,0.8-1.3c0-0.7-0.3-1.3-1-2c-0.7-0.6-1.4-1.2-2.3-1.8c-1.5-1.1-2.6-2-3.2-2.8c-0.6-0.8-0.9-1.9-0.9-3.2
					c0-2.1,0.9-3.8,2.6-5.1c1.8-1.4,4-2,6.8-2c1.8,0,3.6,0.3,5.5,0.8v5.4c-1-0.5-1.9-0.8-2.5-1c-0.6-0.2-1.2-0.3-1.9-0.3
					c-0.8,0-1.4,0.1-1.8,0.4c-0.4,0.3-0.6,0.6-0.6,1.1c0,0.6,0.5,1.3,1.5,2c1,0.7,1.8,1.3,2.4,1.8c2.4,1.8,3.6,3.9,3.6,6.2
					c0,1.9-0.8,3.6-2.4,5c-1.6,1.4-3.9,2-7,2c-2.7,0-4.9-0.3-6.9-1V247.8z"/>
				<path class="st0" d="M229,254.2c0.7-2.4,1.1-4.3,1.1-5.8v-20.5c0-2-0.4-4.1-1.1-6.1h20.9l-3.6,6.8c-2.9-0.7-5.4-1.1-7.6-1.1v7.7
					h9.9l-3.4,6.8c-2.8-0.7-4.9-1.1-6.5-1.1v7.2c0,1.8,0.4,3.9,1.1,6.2H229z"/>
				<path class="st0" d="M253.4,237.6l1.5-5.5c1.7-0.4,3-0.7,3.9-0.8c0.9-0.1,1.7-0.2,2.5-0.2c2.7,0,4.9,0.7,6.5,2
					c1.6,1.4,2.4,3.6,2.4,6.8v9v0.3c0,1.4,0.4,3.1,1.1,5h-8.3v-2.1l-3.7,2.5c-0.5,0.1-1,0.1-1.4,0.1c-1.7,0-3.3-0.6-4.7-1.7
					c-1.4-1.2-2-2.7-2-4.7c0-3.4,2.9-6,8.8-7.7l2.8-0.9c0-0.9-0.4-1.7-1.1-2.4c-0.7-0.7-1.7-1-3.1-1c-0.8,0-1.6,0.1-2.3,0.3
					C255.6,236.6,254.6,237,253.4,237.6z M257.8,228.9c1.4-2.1,2.4-4.6,3.1-7.4h9c-2.3,2.1-4.5,4.6-6.6,7.4H257.8z M258.7,244.8
					c-0.6,0.9-0.9,1.7-0.9,2.6c0,0.6,0.2,1.2,0.7,1.7c0.4,0.5,1,0.8,1.8,0.8c0.3,0,0.6,0,0.9-0.1c0.3-0.1,0.8-0.2,1.5-0.5v-4.5
					H258.7z"/>
				<path class="st0" d="M291.8,247.6l-2.9,6.5c-1.3,0.4-2.7,0.6-4.1,0.6c-3.5,0-6.4-1.1-8.7-3.2c-2.3-2.1-3.4-4.9-3.4-8.4
					c0-3.4,1.2-6.3,3.6-8.6c2.4-2.3,5.5-3.4,9.3-3.4c1.7,0,3.5,0.3,5.3,0.8l-0.4,5.8c-1.1-0.6-1.9-0.9-2.5-1.1
					c-0.6-0.2-1.2-0.3-1.8-0.3c-1.6,0-3,0.5-4,1.6c-1.1,1.1-1.6,2.6-1.6,4.6c0,1.8,0.5,3.4,1.4,4.7c1,1.3,2.4,2,4.3,2
					c1.3,0,2.4-0.2,3.3-0.7C290.6,248.2,291.3,247.8,291.8,247.6z"/>
				<path class="st0" d="M293.5,254.2c0.7-2,1.1-3.7,1.1-5.3v-11.1c0-2-0.4-4-1.1-6.2h10c-0.7,1.9-1.1,3.9-1.1,5.9v12.1
					c0,1.8,0.4,3.4,1.1,4.6H293.5z M293.9,224.9c0-1.2,0.4-2.2,1.2-3.1c0.8-0.9,2-1.4,3.4-1.4c1.3,0,2.4,0.4,3.3,1.3
					c0.9,0.9,1.4,2,1.4,3.2c0,1.2-0.4,2.3-1.2,3.2c-0.8,0.9-1.9,1.3-3.2,1.3c-1.6,0-2.7-0.4-3.6-1.3
					C294.3,227.2,293.9,226.1,293.9,224.9z"/>
				<path class="st0" d="M306.3,222.7l10-1c-0.7,1.7-1.1,4-1.1,6.8V248c0,1.9,0.4,4,1.1,6.2h-10c0.7-1.8,1.1-4.4,1.1-7.7v-16.6v-1
					C307.4,226.2,307,224.2,306.3,222.7z"/>
			</g>
			<g>
				<path class="st0" d="M101.6,274.6v-6.3c0-0.1,0-0.3,0-0.4c0-0.1,0-0.8,0.1-1.8c-0.3,1.3-0.6,2.2-0.7,2.8l-1.7,5.8h-1.4l-1.7-5.8
					l-0.7-2.8c0.1,1.1,0.1,1.9,0.1,2.3v6.3h-1.8v-10.4h2.6l1.7,5.8l0.1,0.6l0.3,1.4l0.4-1.7l1.7-6.1h2.6v10.4H101.6z"/>
				<path class="st0" d="M111.8,274.6l-0.8-2.7h-3.6l-0.8,2.7h-2l3.4-10.4h2.3l3.4,10.4H111.8z M109.2,265.8l0,0.2
					c0,0.2-0.1,0.4-0.2,0.6s-0.4,1.5-1.2,3.7h2.7l-0.9-3l-0.3-1L109.2,265.8z"/>
				<path class="st0" d="M120.8,274.6l-4.1-8c0.1,0.8,0.1,1.4,0.1,1.9v6.1h-1.8v-10.4h2.3l4.2,8.1c-0.1-0.7-0.1-1.4-0.1-2v-6.1h1.8
					v10.4H120.8z"/>
				<path class="st0" d="M131.6,274.6l-0.8-2.7h-3.6l-0.8,2.7h-2l3.4-10.4h2.3l3.4,10.4H131.6z M129,265.8l0,0.2
					c0,0.2-0.1,0.4-0.2,0.6s-0.4,1.5-1.2,3.7h2.7l-0.9-3l-0.3-1L129,265.8z"/>
				<path class="st0" d="M139.4,273c0.5,0,1-0.1,1.5-0.2s0.9-0.4,1.1-0.6v-1.4h-2.3v-1.6h4.1v3.8c-0.5,0.6-1.2,1-2,1.3
					c-0.8,0.3-1.6,0.5-2.5,0.5c-1.5,0-2.7-0.5-3.5-1.4c-0.8-0.9-1.2-2.3-1.2-4c0-1.7,0.4-3,1.2-3.9c0.8-0.9,2-1.4,3.6-1.4
					c2.2,0,3.6,0.9,4.2,2.7l-1.8,0.6c-0.2-0.5-0.5-0.9-0.9-1.2c-0.4-0.3-0.9-0.4-1.5-0.4c-0.9,0-1.6,0.3-2.1,0.9
					c-0.5,0.6-0.7,1.5-0.7,2.7c0,1.2,0.2,2.1,0.7,2.7C137.7,272.7,138.4,273,139.4,273z"/>
				<path class="st0" d="M145.5,274.6v-10.4h7.4v1.7h-5.4v2.6h5v1.7h-5v2.7h5.7v1.7H145.5z"/>
				<path class="st0" d="M161.2,274.6l-2.2-4h-2.3v4h-2v-10.4h4.7c1.1,0,2,0.3,2.6,0.8c0.6,0.5,0.9,1.3,0.9,2.3
					c0,0.7-0.2,1.4-0.6,1.9s-0.9,0.9-1.5,1l2.6,4.4H161.2z M160.9,267.4c0-1-0.6-1.5-1.7-1.5h-2.5v3.1h2.6c0.6,0,1-0.1,1.3-0.4
					C160.8,268.3,160.9,267.9,160.9,267.4z"/>
				<path class="st0" d="M176.8,269.3c0,1.1-0.2,2-0.6,2.8s-0.9,1.4-1.6,1.8c-0.7,0.4-1.5,0.6-2.4,0.6h-3.8v-10.4h3.4
					c1.6,0,2.8,0.4,3.7,1.3C176.4,266.4,176.8,267.7,176.8,269.3z M174.8,269.3c0-1.1-0.3-2-0.8-2.6c-0.5-0.6-1.3-0.9-2.3-0.9h-1.4
					v7h1.7c0.8,0,1.5-0.3,2-1S174.8,270.4,174.8,269.3z"/>
				<path class="st0" d="M178.3,274.6v-10.4h7.4v1.7h-5.4v2.6h5v1.7h-5v2.7h5.7v1.7H178.3z"/>
				<path class="st0" d="M199,267.5c0,0.7-0.1,1.3-0.4,1.8c-0.3,0.5-0.7,0.9-1.2,1.2s-1.1,0.4-1.8,0.4h-2.3v3.7h-2v-10.4h4.2
					c1.1,0,2,0.3,2.6,0.9S199,266.4,199,267.5z M197,267.5c0-1.1-0.6-1.6-1.8-1.6h-2v3.4h2.1c0.5,0,1-0.1,1.3-0.4
					C196.9,268.5,197,268.1,197,267.5z"/>
				<path class="st0" d="M200.4,274.6v-10.4h7.4v1.7h-5.4v2.6h5v1.7h-5v2.7h5.7v1.7H200.4z"/>
				<path class="st0" d="M218,269.3c0,1.1-0.2,2-0.6,2.8s-0.9,1.4-1.6,1.8c-0.7,0.4-1.5,0.6-2.4,0.6h-3.8v-10.4h3.4
					c1.6,0,2.8,0.4,3.7,1.3S218,267.7,218,269.3z M216,269.3c0-1.1-0.3-2-0.8-2.6c-0.5-0.6-1.3-0.9-2.3-0.9h-1.4v7h1.7
					c0.8,0,1.5-0.3,2-1S216,270.4,216,269.3z"/>
				<path class="st0" d="M219.5,274.6v-10.4h2v10.4H219.5z"/>
				<path class="st0" d="M231.7,269.3c0,1.1-0.2,2-0.6,2.8s-0.9,1.4-1.6,1.8c-0.7,0.4-1.5,0.6-2.4,0.6h-3.8v-10.4h3.4
					c1.6,0,2.8,0.4,3.7,1.3S231.7,267.7,231.7,269.3z M229.7,269.3c0-1.1-0.3-2-0.8-2.6c-0.5-0.6-1.3-0.9-2.3-0.9h-1.4v7h1.7
					c0.8,0,1.5-0.3,2-1S229.7,270.4,229.7,269.3z"/>
				<path class="st0" d="M242.4,269.4c0,1.1-0.2,2-0.6,2.9c-0.4,0.8-0.9,1.5-1.7,1.9c-0.7,0.4-1.6,0.7-2.5,0.7
					c-1.5,0-2.6-0.5-3.5-1.4c-0.8-1-1.3-2.3-1.3-4c0-1.7,0.4-3,1.3-3.9c0.8-0.9,2-1.4,3.5-1.4s2.7,0.5,3.5,1.4
					C241.9,266.4,242.4,267.7,242.4,269.4z M240.3,269.4c0-1.1-0.2-2-0.7-2.6s-1.2-1-2-1c-0.9,0-1.6,0.3-2,0.9
					c-0.5,0.6-0.7,1.5-0.7,2.6c0,1.1,0.2,2,0.7,2.7c0.5,0.7,1.2,1,2,1c0.9,0,1.6-0.3,2-1C240.1,271.4,240.3,270.5,240.3,269.4z"/>
				<path class="st0" d="M251.6,271.6c0,1-0.3,1.8-1,2.3s-1.7,0.8-3,0.8c-1.2,0-2.2-0.2-2.8-0.7s-1.1-1.2-1.3-2.1l1.9-0.3
					c0.1,0.6,0.4,1,0.8,1.2c0.4,0.2,0.9,0.4,1.6,0.4c1.4,0,2.1-0.5,2.1-1.4c0-0.3-0.1-0.5-0.2-0.7s-0.4-0.4-0.7-0.5
					s-0.8-0.3-1.7-0.5c-0.7-0.2-1.2-0.3-1.5-0.4c-0.3-0.1-0.5-0.2-0.8-0.4c-0.2-0.2-0.4-0.3-0.6-0.5c-0.2-0.2-0.3-0.5-0.4-0.7
					s-0.1-0.6-0.1-1c0-0.9,0.3-1.7,1-2.2c0.6-0.5,1.6-0.7,2.8-0.7c1.2,0,2,0.2,2.6,0.6c0.6,0.4,1,1.1,1.1,2l-1.9,0.3
					c-0.1-0.4-0.3-0.8-0.6-1c-0.3-0.2-0.7-0.3-1.3-0.3c-1.2,0-1.8,0.4-1.8,1.2c0,0.3,0.1,0.5,0.2,0.7c0.1,0.2,0.3,0.3,0.6,0.4
					s0.8,0.3,1.5,0.5c0.9,0.2,1.6,0.4,1.9,0.6s0.7,0.4,0.9,0.6s0.4,0.5,0.5,0.9C251.5,270.8,251.6,271.2,251.6,271.6z"/>
				<path class="st0" d="M261.2,270.3v4.3h-2v-4.3l-3.4-6.1h2.1l2.3,4.4l2.3-4.4h2.1L261.2,270.3z"/>
				<path class="st0" d="M277.1,274.6v-6.3c0-0.1,0-0.3,0-0.4c0-0.1,0-0.8,0.1-1.8c-0.3,1.3-0.6,2.2-0.7,2.8l-1.7,5.8h-1.4l-1.7-5.8
					L271,266c0.1,1.1,0.1,1.9,0.1,2.3v6.3h-1.8v-10.4h2.6l1.7,5.8l0.1,0.6l0.3,1.4l0.4-1.7l1.7-6.1h2.6v10.4H277.1z"/>
				<path class="st0" d="M280.7,274.6v-10.4h7.4v1.7h-5.4v2.6h5v1.7h-5v2.7h5.7v1.7H280.7z"/>
				<path class="st0" d="M295.6,274.6l-4.1-8c0.1,0.8,0.1,1.4,0.1,1.9v6.1h-1.8v-10.4h2.3l4.2,8.1c-0.1-0.7-0.1-1.4-0.1-2v-6.1h1.8
					v10.4H295.6z"/>
				<path class="st0" d="M303.7,274.8c-1.3,0-2.3-0.3-3-1c-0.7-0.7-1-1.7-1-3v-6.5h2v6.3c0,0.8,0.2,1.4,0.5,1.9
					c0.4,0.4,0.9,0.6,1.6,0.6c0.7,0,1.2-0.2,1.6-0.7c0.4-0.4,0.6-1.1,0.6-1.9v-6.3h2v6.4c0,1.3-0.4,2.3-1.1,3.1
					C306.1,274.4,305,274.8,303.7,274.8z"/>
				<path class="st0" d="M317.4,271.6c0,1-0.3,1.8-1,2.3s-1.7,0.8-3,0.8c-1.2,0-2.2-0.2-2.8-0.7s-1.1-1.2-1.3-2.1l1.9-0.3
					c0.1,0.6,0.4,1,0.8,1.2c0.4,0.2,0.9,0.4,1.6,0.4c1.4,0,2.1-0.5,2.1-1.4c0-0.3-0.1-0.5-0.2-0.7s-0.4-0.4-0.7-0.5
					s-0.8-0.3-1.7-0.5c-0.7-0.2-1.2-0.3-1.5-0.4c-0.3-0.1-0.5-0.2-0.8-0.4c-0.2-0.2-0.4-0.3-0.6-0.5c-0.2-0.2-0.3-0.5-0.4-0.7
					s-0.1-0.6-0.1-1c0-0.9,0.3-1.7,1-2.2c0.6-0.5,1.6-0.7,2.8-0.7c1.2,0,2,0.2,2.6,0.6c0.6,0.4,1,1.1,1.1,2l-1.9,0.3
					c-0.1-0.4-0.3-0.8-0.6-1c-0.3-0.2-0.7-0.3-1.3-0.3c-1.2,0-1.8,0.4-1.8,1.2c0,0.3,0.1,0.5,0.2,0.7c0.1,0.2,0.3,0.3,0.6,0.4
					s0.8,0.3,1.5,0.5c0.9,0.2,1.6,0.4,1.9,0.6s0.7,0.4,0.9,0.6s0.4,0.5,0.5,0.9C317.3,270.8,317.4,271.2,317.4,271.6z"/>
			</g>
			<linearGradient id="SVGID_4_" gradientUnits="userSpaceOnUse" x1="116.7063" y1="299.7921" x2="286.2631" y2="299.7921">
				<stop  offset="0" style="stop-color:#7C1E19"/>
				<stop  offset="0.205" style="stop-color:#AB3532"/>
				<stop  offset="0.4022" style="stop-color:#D95153"/>
				<stop  offset="0.5" style="stop-color:#EB5F62"/>
				<stop  offset="0.5978" style="stop-color:#D95153"/>
				<stop  offset="0.795" style="stop-color:#AB3532"/>
				<stop  offset="1" style="stop-color:#7C1E19"/>
			</linearGradient>
			<path class="st5" d="M210,303.7c4,0.6,8.2,9.6,3.1,8.8c-18.6-2.8-13.3-30.7,5.6-23.8c11.5,4.2,18.4,15.8,30.7,18.1
				c6.6,1.2,14.5,1.4,20.8-1.4c3.2-1.4,7.5-3.8,7.7-7.8c0.4-10.1-8.1-3.4-7.3-2.2c3.6,5.6-3.7,6.4-6.5,2c-5.6-8.7,2.4-17,11.7-13.7
				c7.4,2.6,13,14,9.6,21.4c-5,10.9-21,12.8-31.5,10.9c-7.4-1.4-14.3-4-20.2-8.9c-3.4-2.8-6.9-6.7-10.9-8.6c-2-1.1-4.2-1.7-6.5-1.9
				C211.5,296.4,209.4,298.8,210,303.7L210,303.7z M193,303.7c-4,0.6-8.2,9.6-3.1,8.8c18.6-2.8,13.3-30.7-5.6-23.8
				c-11.5,4.2-18.4,15.8-30.7,18.1c-6.6,1.2-14.5,1.4-20.8-1.4c-3.2-1.4-7.5-3.8-7.7-7.8c-0.4-10.1,8.1-3.4,7.3-2.2
				c-3.6,5.6,3.7,6.4,6.5,2c5.6-8.7-2.4-17-11.7-13.7c-7.4,2.6-13,14-9.6,21.4c5,10.9,21,12.8,31.5,10.9c7.4-1.4,14.3-4,20.2-8.9
				c3.4-2.8,6.9-6.7,10.9-8.6c2-1.1,4.2-1.7,6.5-1.9C191.5,296.4,193.5,298.8,193,303.7L193,303.7z"/>
		</g>
	</g>
</g>
</svg>
