<?xml version="1.0" encoding="utf-8"?>
<!-- Generator: Adobe Illustrator 19.0.1, SVG Export Plug-In . SVG Version: 6.00 Build 0)  -->
<svg version="1.1" id="Capa_1" xmlns="http://www.w3.org/2000/svg" xmlns:xlink="http://www.w3.org/1999/xlink" x="0px" y="0px"
	 viewBox="0 0 841.9 595.3" style="enable-background:new 0 0 841.9 595.3;" xml:space="preserve">
<style type="text/css">
	.st0{fill:#2C2624;}
	.st1{fill:url(#SVGID_1_);}
	.st2{fill:#FFFFFF;}
	.st3{fill:url(#SVGID_2_);}
</style>
<g>
	<g>
		<path class="st0" d="M326.4,91.1c-23,0-41.7,27.8-41.7,62.1c0,30,14.3,55.1,33.4,60.8c0.4,8,0.6,17.2,0.6,27.7
			c0,69.1-10.7,169.5,7.7,169.5c18.4,0,9.3-100.4,9.3-169.5c0-10.7,0.2-20.1,0.5-28.2c18.3-6.6,31.9-31.1,31.9-60.3
			C368.1,118.9,349.4,91.1,326.4,91.1z"/>
		<path class="st0" d="M418.3,215.9V44c-36,23.3-38.8,123.7-33,152.7c2.5,12.6,9.2,20.1,15.8,24.5c-1.3,69.5-9.1,167.2,7.9,167.2
			C427.5,388.4,418.3,285.1,418.3,215.9L418.3,215.9z"/>
		<path class="st0" d="M483.7,94H481c0,0,4.7,78.4-1.5,78.4c-6.2,0-6.9-78.4-6.9-78.4h-2.3c0,0,3.3,79.2-2.9,79.2
			c-6.2,0-2.9-79.2-2.9-79.2h-2.3c0,0-0.8,78.4-6.9,78.4c-6.2,0-1.5-78.4-1.5-78.4h-2.6c0,0-16.1,96-7.6,104.3
			c8.6,8.3,14.8,15.5,14.8,24.3l0.9,22c0,69.1-10.7,169.5,7.7,169.5c18.4,0,9.3-100.4,9.3-169.5l0.5-21.8c0-8.8,5.9-16.1,14.4-24.4
			C499.8,190,483.7,94,483.7,94z"/>
	</g>
	<g>
		<g>
			<linearGradient id="SVGID_1_" gradientUnits="userSpaceOnUse" x1="259.351" y1="520.0627" x2="534.8888" y2="244.5249">
				<stop  offset="0" style="stop-color:#7C1E19"/>
				<stop  offset="0.205" style="stop-color:#AB3532"/>
				<stop  offset="0.4022" style="stop-color:#D95153"/>
				<stop  offset="0.5" style="stop-color:#EB5F62"/>
				<stop  offset="0.5978" style="stop-color:#D95153"/>
				<stop  offset="0.795" style="stop-color:#AB3532"/>
				<stop  offset="1" style="stop-color:#7C1E19"/>
			</linearGradient>
			<path class="st1" d="M635.5,382.3c0-42.4-29.4-77.9-69-87.3c-38.5-35.5-100-58.4-169.2-58.4c-69.1,0-130.5,22.9-169,58.3
				c-39.8,9.2-69.6,44.8-69.6,87.5c0,42.6,29.7,78.3,69.6,87.5c38.5,35.4,99.9,58.3,169,58.3c69.2,0,130.6-23,169.2-58.4
				C606.1,460.2,635.5,424.7,635.5,382.3z"/>
			<path class="st2" d="M397.3,513.8c-62,0-121-20.2-157.9-54.1c-1.4-1.3-3.2-2.2-5.1-2.7c-35-8-59.4-38.8-59.4-74.7
				c0-35.9,24.4-66.7,59.4-74.7c1.9-0.4,3.6-1.4,5.1-2.7c36.9-33.9,95.9-54.1,157.9-54.1c62.1,0,121.1,20.3,158,54.3
				c1.4,1.3,3.1,2.2,5,2.7c34.7,8.2,58.9,38.9,58.9,74.6c0,35.7-24.2,66.4-58.9,74.6c-1.9,0.4-3.6,1.4-5,2.7
				C518.5,493.5,459.4,513.8,397.3,513.8z"/>
		</g>
		<g>
			<g>
				<path class="st0" d="M242.4,336.3h17.9c0,1.6,0.3,2.9,1,3.8l11.6,14.4l12.4-15c0.6-0.7,1-1.4,1.1-1.9c0.1-0.5,0.2-1,0.2-1.4
					h13.7c-2.3,4.2-3.4,8.8-3.4,13.6v18.4c0,6.9,0.5,11.6,1.5,14h-15.2c1-2.4,1.5-7.1,1.5-14v-13.7l-12,15.9l-12-15.9v13.7
					c0,5.9,0.5,10.6,1.5,14H247c1-3.1,1.5-7.8,1.5-14v-24.5L242.4,336.3z"/>
				<path class="st0" d="M332.5,364.1c0,1.2-0.1,2.6-0.4,4.2h-16.9c0.4,2,1.4,3.7,3,5.1c1.6,1.4,3.6,2,6,2c1.6,0,3-0.2,4.2-0.6
					c1.3-0.4,2.7-1.1,4.1-1.9l-3.8,9.4c-2.1,0.5-4.3,0.7-6.5,0.7c-5.7,0-10.2-1.4-13.7-4.2c-3.4-2.9-5.1-7-5.1-12.3
					c0-5,1.5-9.1,4.4-12.2c3-3.1,6.7-4.6,11.3-4.6c3.9,0,7.1,1.3,9.6,3.8C331.2,356,332.5,359.5,332.5,364.1z M319,355.8
					c-1.4,0-2.5,0.5-3.2,1.5c-0.7,1-1.1,2.6-1.2,4.8h8.3C322.8,357.9,321.5,355.8,319,355.8z"/>
				<path class="st0" d="M335.3,350.3h12.4v5.9l6.2-6.3c1.3-0.2,2.3-0.3,3-0.3c2.9,0,5.2,0.9,6.9,2.7c1.7,1.8,2.6,4.3,2.6,7.7v14.4
					c0,2.5,0.5,5.1,1.5,7.9h-14.1c1-3.1,1.5-5.7,1.5-7.9v-9.5c0-2.9-0.3-4.8-1-5.5c-0.7-0.8-1.7-1.2-3-1.2c-1.1,0-2.3,0.3-3.4,0.9
					v14.4c0,2.5,0.5,5.4,1.5,8.8h-14.1c1-2.9,1.5-5.4,1.5-7.5v-13.2v-0.9C336.8,356.9,336.3,353.4,335.3,350.3z"/>
				<path class="st0" d="M370.6,350.3h14.1c-1,2.7-1.5,5.8-1.5,9.2v11.7c0,2.7,1.2,4,3.5,4c1.2,0,2.6-0.5,4-1.4v-14.8
					c0-2.7-0.5-5.6-1.5-8.8h14.1c-1,2.7-1.5,5.3-1.5,7.9v14.9c0,3.1,0.5,6.2,1.5,9.2h-12.6v-3.8l-6,4.5c-0.5,0-1,0.1-1.7,0.1
					c-3.1,0-5.8-0.9-7.8-2.7c-2-1.8-3.1-4.5-3.1-8.1v-15.3C372.2,354.8,371.6,352.7,370.6,350.3z"/>
				<path class="st0" d="M406.6,373.3c1.9,1.1,3.4,1.9,4.5,2.2c1.1,0.3,2.2,0.4,3.3,0.4c1,0,1.9-0.2,2.6-0.6c0.7-0.4,1.1-1,1.1-1.8
					c0-1-0.5-1.9-1.5-2.8c-1-0.9-2-1.7-3.2-2.6c-2.2-1.5-3.7-2.8-4.6-4c-0.9-1.1-1.3-2.7-1.3-4.5c0-2.9,1.2-5.3,3.7-7.2
					c2.5-1.9,5.7-2.9,9.6-2.9c2.6,0,5.2,0.4,7.7,1.1v7.6c-1.5-0.7-2.6-1.1-3.5-1.4c-0.9-0.2-1.7-0.4-2.7-0.4c-1.1,0-1.9,0.2-2.5,0.6
					c-0.6,0.4-0.9,0.9-0.9,1.6c0,0.9,0.7,1.8,2.1,2.8c1.4,1,2.5,1.9,3.4,2.6c3.4,2.5,5.1,5.5,5.1,8.8c0,2.8-1.1,5.1-3.4,7
					c-2.2,1.9-5.6,2.9-9.9,2.9c-3.8,0-7-0.5-9.7-1.4V373.3z"/>
				<path class="st0" d="M435.5,382.3c1-3.4,1.5-6.1,1.5-8.3V345c0-2.9-0.5-5.8-1.5-8.7h29.6l-5.1,9.6c-4.1-1-7.7-1.6-10.7-1.6v10.9
					h14l-4.8,9.6c-3.9-1-7-1.5-9.2-1.5v10.1c0,2.6,0.5,5.5,1.5,8.8H435.5z"/>
				<path class="st0" d="M469.9,358.8l2.1-7.8c2.5-0.6,4.3-1,5.5-1.2c1.2-0.2,2.4-0.3,3.5-0.3c3.8,0,6.9,1,9.1,2.9
					c2.3,1.9,3.4,5.1,3.4,9.6v12.7v0.4c0,2,0.5,4.4,1.5,7h-11.7v-3l-5.3,3.5c-0.7,0.1-1.4,0.1-2,0.1c-2.5,0-4.7-0.8-6.6-2.4
					c-1.9-1.6-2.9-3.9-2.9-6.7c0-4.8,4.2-8.5,12.5-11l4-1.2c0-1.3-0.5-2.5-1.5-3.4c-1-1-2.4-1.4-4.3-1.4c-1.1,0-2.2,0.1-3.3,0.4
					C473.1,357.4,471.7,358,469.9,358.8z M476.2,346.5c1.9-3,3.4-6.5,4.5-10.5h12.8c-3.3,3-6.4,6.5-9.3,10.5H476.2z M477.6,369
					c-0.8,1.2-1.2,2.4-1.2,3.6c0,0.9,0.3,1.7,0.9,2.5c0.6,0.7,1.5,1.1,2.6,1.1c0.4,0,0.9,0,1.3-0.1c0.4-0.1,1.1-0.3,2.1-0.7V369
					H477.6z"/>
				<path class="st0" d="M524.4,372.9l-4.1,9.3c-1.9,0.5-3.8,0.8-5.8,0.8c-5,0-9.1-1.5-12.3-4.5c-3.2-3-4.8-7-4.8-11.9
					c0-4.9,1.7-8.9,5.1-12.1c3.4-3.2,7.8-4.8,13.1-4.8c2.4,0,4.9,0.4,7.5,1.1l-0.5,8.2c-1.5-0.8-2.7-1.3-3.6-1.5
					c-0.9-0.2-1.7-0.4-2.5-0.4c-2.3,0-4.2,0.8-5.7,2.3c-1.5,1.6-2.3,3.7-2.3,6.5c0,2.6,0.7,4.8,2,6.7c1.4,1.9,3.4,2.9,6.1,2.9
					c1.8,0,3.4-0.3,4.7-0.9C522.7,373.8,523.7,373.3,524.4,372.9z"/>
				<path class="st0" d="M526.8,382.3c1-2.8,1.5-5.3,1.5-7.5v-15.8c0-2.8-0.5-5.7-1.5-8.8h14.1c-1,2.7-1.5,5.5-1.5,8.3v17.1
					c0,2.6,0.5,4.8,1.5,6.6H526.8z M527.3,340.8c0-1.7,0.6-3.2,1.7-4.5c1.2-1.3,2.8-1.9,4.8-1.9c1.8,0,3.4,0.6,4.6,1.9
					c1.3,1.3,1.9,2.8,1.9,4.6c0,1.8-0.6,3.3-1.7,4.5c-1.1,1.2-2.7,1.8-4.6,1.8c-2.2,0-3.9-0.6-5.1-1.9
					C527.9,344.1,527.3,342.6,527.3,340.8z"/>
				<path class="st0" d="M544.9,337.7l14.1-1.5c-1,2.4-1.5,5.6-1.5,9.6v27.6c0,2.7,0.5,5.7,1.5,8.8h-14.1c1-2.6,1.5-6.3,1.5-11
					v-23.5v-1.4C546.4,342.7,545.9,339.8,544.9,337.7z"/>
			</g>
			<g>
				<path class="st0" d="M255,411.2v-8.9c0-0.2,0-0.4,0-0.6c0-0.2,0-1.1,0.1-2.6c-0.4,1.9-0.8,3.2-1,3.9l-2.4,8.2h-2l-2.4-8.2
					l-1-3.9c0.1,1.6,0.1,2.7,0.1,3.2v8.9h-2.5v-14.7h3.7l2.4,8.2l0.2,0.8l0.5,2l0.6-2.4l2.5-8.7h3.7v14.7H255z"/>
				<path class="st0" d="M269.5,411.2l-1.2-3.8h-5.1l-1.2,3.8h-2.8l4.9-14.7h3.3l4.9,14.7H269.5z M265.8,398.8l-0.1,0.2
					c-0.1,0.3-0.1,0.5-0.2,0.9c-0.1,0.3-0.6,2.1-1.6,5.3h3.8l-1.3-4.2l-0.4-1.4L265.8,398.8z"/>
				<path class="st0" d="M282.2,411.2l-5.8-11.4c0.1,1.1,0.2,2,0.2,2.7v8.7h-2.5v-14.7h3.2l5.9,11.4c-0.1-1.1-0.2-2-0.2-2.9v-8.6
					h2.5v14.7H282.2z"/>
				<path class="st0" d="M297.5,411.2l-1.2-3.8h-5.1l-1.2,3.8h-2.8l4.9-14.7h3.3l4.9,14.7H297.5z M293.8,398.8l-0.1,0.2
					c-0.1,0.3-0.1,0.5-0.2,0.9c-0.1,0.3-0.6,2.1-1.6,5.3h3.8l-1.3-4.2l-0.4-1.4L293.8,398.8z"/>
				<path class="st0" d="M308.5,409c0.7,0,1.4-0.1,2.1-0.4c0.7-0.2,1.2-0.5,1.6-0.9v-2h-3.3v-2.3h5.8v5.4c-0.7,0.8-1.6,1.4-2.8,1.9
					c-1.1,0.5-2.3,0.7-3.6,0.7c-2.2,0-3.8-0.7-5-2c-1.2-1.3-1.8-3.2-1.8-5.7c0-2.4,0.6-4.3,1.8-5.6c1.2-1.3,2.9-1.9,5.1-1.9
					c3.1,0,5.1,1.3,6,3.8l-2.6,0.9c-0.3-0.7-0.7-1.3-1.3-1.7c-0.6-0.4-1.3-0.6-2.1-0.6c-1.3,0-2.3,0.4-3,1.3c-0.7,0.9-1,2.1-1,3.8
					c0,1.7,0.4,3,1.1,3.9C306.2,408.6,307.2,409,308.5,409z"/>
				<path class="st0" d="M317.2,411.2v-14.7h10.5v2.4H320v3.7h7.1v2.4H320v3.9h8.1v2.4H317.2z"/>
				<path class="st0" d="M339.4,411.2l-3.1-5.6H333v5.6h-2.8v-14.7h6.7c1.6,0,2.8,0.4,3.7,1.1c0.9,0.8,1.3,1.8,1.3,3.3
					c0,1-0.3,1.9-0.8,2.7c-0.5,0.7-1.2,1.2-2.2,1.5l3.6,6.2H339.4z M339,401c0-1.4-0.8-2.1-2.5-2.1H333v4.4h3.7
					c0.8,0,1.4-0.2,1.8-0.6C338.8,402.3,339,401.7,339,401z"/>
				<path class="st0" d="M361.5,403.7c0,1.5-0.3,2.8-0.8,4c-0.5,1.1-1.3,2-2.3,2.6c-1,0.6-2.1,0.9-3.4,0.9h-5.4v-14.7h4.8
					c2.3,0,4,0.6,5.2,1.9C360.9,399.6,361.5,401.4,361.5,403.7z M358.7,403.7c0-1.6-0.4-2.8-1.1-3.6c-0.7-0.8-1.8-1.3-3.2-1.3h-2v10
					h2.4c1.2,0,2.2-0.5,2.9-1.4S358.7,405.3,358.7,403.7z"/>
				<path class="st0" d="M363.6,411.2v-14.7h10.5v2.4h-7.7v3.7h7.1v2.4h-7.1v3.9h8.1v2.4H363.6z"/>
				<path class="st0" d="M393,401.2c0,0.9-0.2,1.8-0.6,2.5c-0.4,0.7-1,1.3-1.7,1.7c-0.7,0.4-1.6,0.6-2.6,0.6h-3.3v5.2H382v-14.7h6
					c1.6,0,2.8,0.4,3.7,1.2S393,399.7,393,401.2z M390.2,401.2c0-1.5-0.8-2.3-2.5-2.3h-2.9v4.8h3c0.8,0,1.4-0.2,1.8-0.6
					C390,402.6,390.2,402,390.2,401.2z"/>
				<path class="st0" d="M395,411.2v-14.7h10.5v2.4h-7.7v3.7h7.1v2.4h-7.1v3.9h8.1v2.4H395z"/>
				<path class="st0" d="M419.8,403.7c0,1.5-0.3,2.8-0.8,4c-0.5,1.1-1.3,2-2.3,2.6c-1,0.6-2.1,0.9-3.4,0.9h-5.4v-14.7h4.8
					c2.3,0,4,0.6,5.2,1.9C419.2,399.6,419.8,401.4,419.8,403.7z M417,403.7c0-1.6-0.4-2.8-1.1-3.6c-0.7-0.8-1.8-1.3-3.2-1.3h-2v10
					h2.4c1.2,0,2.2-0.5,2.9-1.4S417,405.3,417,403.7z"/>
				<path class="st0" d="M421.9,411.2v-14.7h2.8v14.7H421.9z"/>
				<path class="st0" d="M439.3,403.7c0,1.5-0.3,2.8-0.8,4c-0.5,1.1-1.3,2-2.3,2.6c-1,0.6-2.1,0.9-3.4,0.9h-5.4v-14.7h4.8
					c2.3,0,4,0.6,5.2,1.9C438.6,399.6,439.3,401.4,439.3,403.7z M436.4,403.7c0-1.6-0.4-2.8-1.1-3.6c-0.7-0.8-1.8-1.3-3.2-1.3h-2v10
					h2.4c1.2,0,2.2-0.5,2.9-1.4S436.4,405.3,436.4,403.7z"/>
				<path class="st0" d="M454.4,403.8c0,1.5-0.3,2.9-0.8,4c-0.5,1.2-1.3,2.1-2.4,2.7c-1,0.6-2.2,0.9-3.6,0.9c-2.1,0-3.7-0.7-4.9-2
					c-1.2-1.4-1.8-3.2-1.8-5.6c0-2.4,0.6-4.2,1.8-5.5c1.2-1.3,2.8-2,5-2c2.1,0,3.8,0.7,5,2C453.8,399.6,454.4,401.5,454.4,403.8z
					 M451.5,403.8c0-1.6-0.3-2.8-1-3.7c-0.7-0.9-1.6-1.4-2.9-1.4c-1.3,0-2.2,0.4-2.9,1.3c-0.7,0.9-1,2.1-1,3.8c0,1.6,0.3,2.9,1,3.8
					c0.7,0.9,1.7,1.4,2.9,1.4c1.3,0,2.2-0.5,2.9-1.4C451.2,406.7,451.5,405.5,451.5,403.8z"/>
				<path class="st0" d="M467.4,407c0,1.4-0.5,2.5-1.5,3.3s-2.4,1.1-4.3,1.1c-1.7,0-3.1-0.3-4-1c-1-0.7-1.6-1.7-1.9-3l2.7-0.5
					c0.2,0.8,0.5,1.3,1.1,1.7c0.5,0.4,1.3,0.5,2.2,0.5c2,0,2.9-0.7,2.9-2c0-0.4-0.1-0.8-0.3-1c-0.2-0.3-0.5-0.5-0.9-0.7
					c-0.4-0.2-1.2-0.4-2.3-0.7c-1-0.3-1.7-0.5-2.1-0.6c-0.4-0.2-0.7-0.3-1.1-0.6c-0.3-0.2-0.6-0.5-0.8-0.8c-0.2-0.3-0.4-0.7-0.5-1.1
					c-0.1-0.4-0.2-0.9-0.2-1.4c0-1.3,0.5-2.4,1.4-3.1c0.9-0.7,2.2-1.1,4-1.1c1.7,0,2.9,0.3,3.7,0.9c0.8,0.6,1.4,1.5,1.6,2.8
					l-2.7,0.4c-0.1-0.6-0.4-1.1-0.8-1.4c-0.4-0.3-1-0.5-1.8-0.5c-1.7,0-2.5,0.6-2.5,1.8c0,0.4,0.1,0.7,0.3,0.9
					c0.2,0.2,0.4,0.5,0.8,0.6s1.1,0.4,2.2,0.6c1.3,0.3,2.2,0.6,2.8,0.8c0.6,0.3,1,0.6,1.3,0.9c0.3,0.3,0.6,0.7,0.7,1.2
					S467.4,406.4,467.4,407z"/>
				<path class="st0" d="M481.1,405.2v6h-2.8v-6l-4.8-8.7h2.9l3.2,6.2l3.2-6.2h2.9L481.1,405.2z"/>
				<path class="st0" d="M503.6,411.2v-8.9c0-0.2,0-0.4,0-0.6c0-0.2,0-1.1,0.1-2.6c-0.4,1.9-0.8,3.2-1,3.9l-2.4,8.2h-2l-2.4-8.2
					l-1-3.9c0.1,1.6,0.1,2.7,0.1,3.2v8.9h-2.5v-14.7h3.7l2.4,8.2l0.2,0.8l0.5,2l0.6-2.4l2.5-8.7h3.7v14.7H503.6z"/>
				<path class="st0" d="M508.7,411.2v-14.7h10.5v2.4h-7.7v3.7h7.1v2.4h-7.1v3.9h8.1v2.4H508.7z"/>
				<path class="st0" d="M529.8,411.2l-5.8-11.4c0.1,1.1,0.2,2,0.2,2.7v8.7h-2.5v-14.7h3.2l5.9,11.4c-0.1-1.1-0.2-2-0.2-2.9v-8.6
					h2.5v14.7H529.8z"/>
				<path class="st0" d="M541.2,411.4c-1.8,0-3.2-0.5-4.2-1.5c-1-1-1.5-2.4-1.5-4.2v-9.2h2.8v9c0,1.2,0.3,2,0.8,2.7
					c0.5,0.6,1.2,0.9,2.2,0.9c1,0,1.8-0.3,2.3-0.9s0.8-1.5,0.8-2.7v-8.9h2.8v9.1c0,1.9-0.5,3.3-1.6,4.3S543.1,411.4,541.2,411.4z"/>
				<path class="st0" d="M560.6,407c0,1.4-0.5,2.5-1.5,3.3c-1,0.8-2.4,1.1-4.3,1.1c-1.7,0-3.1-0.3-4-1s-1.6-1.7-1.9-3l2.7-0.5
					c0.2,0.8,0.5,1.3,1.1,1.7c0.5,0.4,1.3,0.5,2.2,0.5c2,0,2.9-0.7,2.9-2c0-0.4-0.1-0.8-0.3-1c-0.2-0.3-0.5-0.5-0.9-0.7
					c-0.4-0.2-1.2-0.4-2.3-0.7c-1-0.3-1.7-0.5-2.1-0.6s-0.7-0.3-1.1-0.6c-0.3-0.2-0.6-0.5-0.8-0.8c-0.2-0.3-0.4-0.7-0.5-1.1
					c-0.1-0.4-0.2-0.9-0.2-1.4c0-1.3,0.5-2.4,1.4-3.1c0.9-0.7,2.2-1.1,4-1.1c1.7,0,2.9,0.3,3.7,0.9c0.8,0.6,1.4,1.5,1.6,2.8
					l-2.7,0.4c-0.1-0.6-0.4-1.1-0.8-1.4c-0.4-0.3-1-0.5-1.8-0.5c-1.7,0-2.5,0.6-2.5,1.8c0,0.4,0.1,0.7,0.3,0.9
					c0.2,0.2,0.4,0.5,0.8,0.6c0.4,0.2,1.1,0.4,2.2,0.6c1.3,0.3,2.2,0.6,2.8,0.8c0.6,0.3,1,0.6,1.3,0.9c0.3,0.3,0.6,0.7,0.7,1.2
					C560.5,405.8,560.6,406.4,560.6,407z"/>
			</g>
			<linearGradient id="SVGID_2_" gradientUnits="userSpaceOnUse" x1="276.4035" y1="446.8942" x2="516.5312" y2="446.8942">
				<stop  offset="0" style="stop-color:#7C1E19"/>
				<stop  offset="0.205" style="stop-color:#AB3532"/>
				<stop  offset="0.4022" style="stop-color:#D95153"/>
				<stop  offset="0.5" style="stop-color:#EB5F62"/>
				<stop  offset="0.5978" style="stop-color:#D95153"/>
				<stop  offset="0.795" style="stop-color:#AB3532"/>
				<stop  offset="1" style="stop-color:#7C1E19"/>
			</linearGradient>
			<path class="st3" d="M408.5,452.5c5.6,0.9,11.6,13.6,4.3,12.5c-26.4-4-18.8-43.4,7.9-33.7c16.2,5.9,26.1,22.4,43.5,25.6
				c9.3,1.7,20.6,2,29.5-2c4.5-2,10.7-5.3,10.9-11.1c0.5-14.4-11.5-4.8-10.4-3.1c5.2,8-5.2,9.1-9.3,2.8c-7.9-12.3,3.4-24,16.5-19.4
				c10.4,3.7,18.4,19.9,13.6,30.2c-7.1,15.4-29.7,18.1-44.7,15.4c-10.4-1.9-20.3-5.7-28.6-12.5c-4.8-4-9.8-9.4-15.5-12.2
				c-2.9-1.6-5.9-2.4-9.2-2.6C410.6,442.1,407.7,445.5,408.5,452.5L408.5,452.5z M384.5,452.5c-5.6,0.9-11.6,13.6-4.3,12.5
				c26.4-4,18.8-43.4-7.9-33.7c-16.2,5.9-26.1,22.4-43.5,25.6c-9.3,1.7-20.6,2-29.5-2c-4.5-2-10.7-5.3-10.9-11.1
				c-0.5-14.4,11.5-4.8,10.4-3.1c-5.2,8,5.2,9.1,9.3,2.8c7.9-12.3-3.4-24-16.5-19.4c-10.4,3.7-18.4,19.9-13.6,30.2
				c7.1,15.4,29.7,18.1,44.7,15.4c10.4-1.9,20.3-5.7,28.6-12.5c4.8-4,9.8-9.4,15.5-12.2c2.9-1.6,5.9-2.4,9.2-2.6
				C382.3,442.1,385.2,445.5,384.5,452.5L384.5,452.5z"/>
		</g>
	</g>
</g>
</svg>
